<svg width="162" height="7" viewBox="0 0 162 7" fill="none" xmlns="http://www.w3.org/2000/svg">
<path d="M0.494663 2.98573C1.61715 4.34897 3.14052 4.9905 4.82425 5.39145C8.03134 6.11316 11.3186 6.35373 14.6059 6.43393C20.539 6.43393 26.4722 6.11316 32.4855 6.19335C42.5077 6.27354 52.4497 5.71221 62.4718 5.7924C70.0085 5.7924 77.6254 5.39145 85.1621 5.31126C89.4916 5.23107 93.8212 5.07069 98.1508 5.15088C103.202 5.31126 108.253 4.9905 113.224 4.83012C119.799 4.66973 126.373 4.50935 133.028 4.34897C135.914 4.26878 138.801 4.1084 141.687 4.1084C144.654 4.1084 147.62 4.1084 150.587 4.1084C153.954 4.26878 157.242 3.78764 160.609 4.34897C161.25 4.42916 161.812 4.18859 161.972 3.62726C162.132 3.14611 161.571 2.82535 161.09 2.66497C159.887 2.26402 158.685 1.78288 157.562 1.22154C157.001 0.980971 156.36 0.740399 155.718 0.660209C152.431 0.179066 149.144 0.0988755 145.937 0.0988755C141.286 0.0988755 136.636 0.259257 131.986 0.419638C129.981 0.499828 127.977 0.0988753 125.972 0.259256C125.331 0.259256 124.69 0.339447 124.048 0.339447C121.322 0.339447 118.676 0.0988753 115.95 0.259256C111.22 0.419637 106.409 0.0186848 101.679 0.259256C101.518 0.259256 101.358 0.259256 101.198 0.259256C97.7499 -0.221887 94.3023 0.0988758 90.8547 0.179066C85.9638 0.339447 80.9928 0.419637 76.102 0.660209C74.9795 0.660209 73.9372 0.259256 72.8949 0.499828C70.4094 0.980971 67.8437 0.7404 65.278 0.900781C59.9062 1.22154 54.4541 0.90078 49.0822 1.06116C48.1201 1.06116 47.1579 1.22154 46.1958 1.06116C44.8328 0.90078 43.55 0.980971 42.1869 1.14135C41.6257 1.14135 41.1446 1.14135 40.5834 1.14135C38.2582 1.14135 35.9331 0.980971 33.6881 1.14135C30.9621 1.22154 28.3162 0.980971 25.5902 1.06116C23.5056 1.06116 21.421 1.06116 19.2562 0.900781C16.6905 0.900781 14.1248 0.980971 11.479 1.06116C8.99347 1.06116 6.50797 1.22154 3.70176 1.22154C2.89999 0.980971 1.93786 1.5423 0.815373 1.6225C-0.146757 1.6225 -0.226934 2.18383 0.414486 2.90554L0.494663 2.98573Z" fill="#E622C2"/>
</svg>
