<svg width="60" height="60" viewBox="0 0 60 60" fill="none" xmlns="http://www.w3.org/2000/svg">
<path d="M35 6.875C39.7671 6.875 43.1537 6.87898 45.7229 7.2244C48.2381 7.56256 49.6872 8.19674 50.7452 9.25476C51.8033 10.3128 52.4374 11.7619 52.7756 14.2771C53.121 16.8463 53.125 20.233 53.125 25C53.125 26.0355 53.9645 26.875 55 26.875C56.0355 26.875 56.875 26.0355 56.875 25V24.859C56.875 20.2646 56.8751 16.6255 56.4922 13.7774C56.0981 10.8464 55.2678 8.47402 53.3969 6.60311C51.526 4.7322 49.1536 3.90191 46.2226 3.50784C43.3745 3.12493 39.7355 3.12496 35.1411 3.125H35C33.9645 3.125 33.125 3.96447 33.125 5C33.125 6.03554 33.9645 6.875 35 6.875Z" fill="#CC60FE"/>
<path d="M24.859 3.125H25C26.0355 3.125 26.875 3.96447 26.875 5C26.875 6.03554 26.0355 6.875 25 6.875C20.233 6.875 16.8463 6.87898 14.2771 7.2244C11.7619 7.56256 10.3128 8.19674 9.25476 9.25476C8.19674 10.3128 7.56256 11.7619 7.2244 14.2771C6.87898 16.8463 6.875 20.233 6.875 25C6.875 26.0355 6.03554 26.875 5 26.875C3.96447 26.875 3.125 26.0355 3.125 25V24.859C3.12496 20.2646 3.12493 16.6255 3.50784 13.7774C3.90191 10.8464 4.7322 8.47402 6.60311 6.60311C8.47402 4.7322 10.8464 3.90191 13.7774 3.50784C16.6255 3.12493 20.2646 3.12496 24.859 3.125Z" fill="#CC60FE"/>
<path d="M55 33.125C56.0355 33.125 56.875 33.9645 56.875 35V35.141C56.875 39.7354 56.8751 43.3745 56.4922 46.2226C56.0981 49.1536 55.2678 51.526 53.3969 53.3969C51.526 55.2678 49.1536 56.0981 46.2226 56.4922C43.3745 56.8751 39.7354 56.875 35.141 56.875H35C33.9645 56.875 33.125 56.0355 33.125 55C33.125 53.9645 33.9645 53.125 35 53.125C39.7671 53.125 43.1537 53.121 45.7229 52.7756C48.2381 52.4374 49.6872 51.8033 50.7452 50.7452C51.8033 49.6872 52.4374 48.2381 52.7756 45.7229C53.121 43.1537 53.125 39.7671 53.125 35C53.125 33.9645 53.9645 33.125 55 33.125Z" fill="#CC60FE"/>
<path d="M6.875 35C6.875 33.9645 6.03554 33.125 5 33.125C3.96447 33.125 3.125 33.9645 3.125 35V35.141C3.12496 39.7354 3.12493 43.3745 3.50784 46.2226C3.90191 49.1536 4.7322 51.526 6.60311 53.3969C8.47402 55.2678 10.8464 56.0981 13.7774 56.4922C16.6255 56.8751 20.2646 56.875 24.859 56.875H25C26.0355 56.875 26.875 56.0355 26.875 55C26.875 53.9645 26.0355 53.125 25 53.125C20.233 53.125 16.8463 53.121 14.2771 52.7756C11.7619 52.4374 10.3128 51.8033 9.25476 50.7452C8.19674 49.6872 7.56256 48.2381 7.2244 45.7229C6.87898 43.1537 6.875 39.7671 6.875 35Z" fill="#CC60FE"/>
<path d="M13.818 13.818C12.5 15.136 12.5 17.2574 12.5 21.5C12.5 24.3284 12.5 25.7426 13.3787 26.6213C14.2574 27.5 15.6716 27.5 18.5 27.5H21.5C24.3284 27.5 25.7426 27.5 26.6213 26.6213C27.5 25.7426 27.5 24.3284 27.5 21.5V18.5C27.5 15.6716 27.5 14.2574 26.6213 13.3787C25.7426 12.5 24.3284 12.5 21.5 12.5C17.2574 12.5 15.136 12.5 13.818 13.818Z" fill="#E1E4EE"/>
<path d="M13.818 46.182C12.5 44.864 12.5 42.7426 12.5 38.5C12.5 35.6716 12.5 34.2574 13.3787 33.3787C14.2574 32.5 15.6716 32.5 18.5 32.5H21.5C24.3284 32.5 25.7426 32.5 26.6213 33.3787C27.5 34.2574 27.5 35.6716 27.5 38.5V41.5C27.5 44.3284 27.5 45.7426 26.6213 46.6213C25.7426 47.5 24.3284 47.5 21.5 47.5C17.2574 47.5 15.136 47.5 13.818 46.182Z" fill="#E1E4EE"/>
<path d="M32.5 18.5C32.5 15.6716 32.5 14.2574 33.3787 13.3787C34.2574 12.5 35.6716 12.5 38.5 12.5C42.7426 12.5 44.864 12.5 46.182 13.818C47.5 15.136 47.5 17.2574 47.5 21.5C47.5 24.3284 47.5 25.7426 46.6213 26.6213C45.7426 27.5 44.3284 27.5 41.5 27.5H38.5C35.6716 27.5 34.2574 27.5 33.3787 26.6213C32.5 25.7426 32.5 24.3284 32.5 21.5V18.5Z" fill="#E1E4EE"/>
<path d="M33.3787 46.6213C32.5 45.7426 32.5 44.3284 32.5 41.5V38.5C32.5 35.6716 32.5 34.2574 33.3787 33.3787C34.2574 32.5 35.6716 32.5 38.5 32.5H41.5C44.3284 32.5 45.7426 32.5 46.6213 33.3787C47.5 34.2574 47.5 35.6716 47.5 38.5C47.5 42.7426 47.5 44.864 46.182 46.182C44.864 47.5 42.7427 47.5 38.5 47.5C35.6716 47.5 34.2574 47.5 33.3787 46.6213Z" fill="#E1E4EE"/>
</svg>
