<?xml version="1.0" encoding="UTF-8"?>
<svg xmlns="http://www.w3.org/2000/svg" version="1.1" viewBox="0 0 512 512">
  <defs>
    <style>
      .cls-1 {
        fill: #f2e2ff;
      }

      .cls-2 {
        fill: #f1ebf7;
      }

      .cls-3 {
        fill: #7e22ce;
      }

      .cls-4 {
        fill: #a846ff;
      }

      .cls-5 {
        fill: #dfbcfe;
      }
    </style>
  </defs>
  <!-- Generator: Adobe Illustrator 28.6.0, SVG Export Plug-In . SVG Version: 1.2.0 Build 709)  -->
  <g>
    <g id="Layer_1">
      <g>
        <path class="cls-4" d="M504.4,272.5l-12.9,196.8v.2c-.2,2.3-1.5,4.2-3.3,5.4-1,.6-2.2,1-3.4,1.1L8.6,504.5c-.6,0-1.2-.5-1.1-1.1L35.9,27.1c0-1.2.5-2.4,1.1-3.4,1.1-1.8,3.1-3.1,5.4-3.3h.2S240.1,7.6,240.1,7.6c3-.2,6,0,8.9.6,2.6.5,5.1,1.3,7.6,2.4l99.6,45.4,95.4,94.7,49.5,104.9c1.1,2.3,1.9,4.7,2.5,7.2,0,0,0,0,0,0,.4,1.8.7,3.6.8,5.4h0c0,1.4,0,2.8,0,4.3h0Z"/>
        <path class="cls-3" d="M504.4,268.3h0c-.1-1.9-.4-3.7-.8-5.5,0,0,0,0,0,0-.5-2.5-1.4-4.9-2.5-7.2l-49.5-104.9-95.4-94.7-99.6-45.4c-2.4-1.1-5-1.9-7.6-2.4-2.9-.6-5.9-.8-8.9-.6l-18.6,1.2c1.7.5,3.4,1.1,5,1.8l99.6,45.4,95.4,94.7,53.6,104.9c1.1,2.3-13.8,213.7-13.8,213.7v.2c-.2,2.3-1.5,4.2-3.3,5.4-1,.6-2.2,1-3.4,1.1L7.5,502.8v.6c0,.6.5,1.2,1.1,1.1l476.1-28.5c1.2,0,2.4-.5,3.4-1.1,1.8-1.2,3.1-3.1,3.3-5.4v-.2s13-196.8,13-196.8c0-1.4.1-2.8,0-4.2h0Z"/>
        <path class="cls-3" d="M504.4,268.3l-12.9,201v.2c-.2,2.3-1.5,4.2-3.3,5.4-1,.6-2.2,1-3.4,1.1L8.6,504.5c-.6,0-1.2-.5-1.1-1.1l.7-11.2,448.7-29.5h0c1.2,0,6.1-4.1,7.1-4.7,1.8-1.2,3.1-3.1,3.3-5.4v-.2s12.9-195.5,12.9-195.5l5.1,1.3s18.5,4.7,18.5,4.7c.4,1.8.7,3.6.8,5.4h0Z"/>
        <path class="cls-1" d="M274.6,109.2l-167,96.1,199.1,199.1,95.9-167.2-128-128Z"/>
        <g>
          <path class="cls-5" d="M7.7,503.7L107.6,205.3l199.1,199.1L8.3,504.3c-.4.1-.8-.2-.6-.6h0Z"/>
          <path class="cls-5" d="M274.6,109.2l-167,96.1L37,23.7c1.1-1.8,3.1-3.1,5.4-3.3h.2S240.1,7.6,240.1,7.6c3-.2,6,0,8.9.6l25.6,101Z"/>
          <path class="cls-5" d="M504.4,268.3h0s-12.9,201-12.9,201v.2c-.2,2.3-1.5,4.2-3.3,5.4l-31.3-12.2h0l-150.2-58.3,95.9-167.2,82.6,20.9,18.5,4.7c.4,1.8.6,3.6.8,5.4Z"/>
        </g>
        <path class="cls-3" d="M503.7,262.9l-18.5-4.7-10-2.5-13.5,209,26.4,10.3c1.8-1.2,3.1-3.1,3.3-5.4v-.2s13-201,13-201h0c0-1.9-.4-3.7-.8-5.5h0Z"/>
        <path class="cls-2" d="M511.9,268s0,0,0-.1c-.1-2.2-.4-4.4-.9-6.6,0,0,0,0,0-.1-.7-3-1.7-5.9-3-8.7l-13.8-29.2c-1.8-3.7-6.2-5.3-10-3.6-3.7,1.8-5.3,6.2-3.6,10l10.6,22.3-84.7-21.5-125.1-125.1-21.5-85,92,42,93.6,92.8,20.2,42.9c1.3,2.7,4,4.3,6.8,4.3s2.2-.2,3.2-.7c3.7-1.8,5.3-6.2,3.6-10l-20.8-44c-.4-.8-.9-1.5-1.5-2.1l-95.4-94.7c-.6-.6-1.4-1.1-2.2-1.5L259.7,3.8c-2.9-1.3-6-2.3-9.2-3-3.6-.7-7.2-1-10.9-.7L100.2,9.1c-4.1.3-7.3,3.8-7,8,.3,4.1,3.8,7.3,8,7l139.5-9c.8,0,1.6,0,2.4,0l22.9,90.5-154.5,88.9L46.5,27.6l19.6-1.3c4.1-.3,7.3-3.8,7-8-.3-4.1-3.8-7.3-8-7l-23.1,1.5c-.2,0-.4,0-.6,0h0c-4.5.5-8.5,3-10.8,6.8-1.3,2.1-2.1,4.4-2.2,6.9L0,502.9c-.2,2.5.8,4.9,2.5,6.6,1.6,1.6,3.8,2.5,6,2.5s.4,0,.5,0l234.3-14c4.1-.2,7.3-3.8,7-7.9-.2-4.1-3.8-7.3-7.9-7l-178.8,10.7,242.8-81.3,148.9,57.9-177.9,10.6c-4.1.2-7.3,3.8-7,7.9.2,4,3.5,7.1,7.5,7.1s.3,0,.5,0l206.8-12.4c2.4-.2,4.8-.9,6.9-2.2,3.9-2.5,6.4-6.5,6.8-11v-.2c0,0,0-.2,0-.2l12.9-196.8c.1-1.7.1-3.4,0-5h0ZM305.1,392.2L119.8,206.9l153.6-88.3,119.9,119.9-88.2,153.7ZM110.9,219.1l182,182L19.3,492.7,110.9,219.1ZM41.6,56.4l58,149.1L18.3,448.4,41.6,56.4ZM496.9,272l-12.7,193.3-166.7-64.8,88.8-154.7,90.7,23c0,1,0,2,0,3.1Z"/>
      </g>
    </g>
  </g>
</svg>