<?xml version="1.0" encoding="UTF-8"?>
<svg xmlns="http://www.w3.org/2000/svg" version="1.1" viewBox="0 0 512 512">
  <defs>
    <style>
      .cls-1 {
        fill: #dfbcfe;
      }
    </style>
  </defs>
  <!-- Generator: Adobe Illustrator 28.6.0, SVG Export Plug-In . SVG Version: 1.2.0 Build 709)  -->
  <g>
    <g id="Capa_1">
      <path class="cls-1" d="M22.1,497h467.9c1.9,0,3.7-.8,5-2.1s2.1-3.1,2.1-5v-11.1c0-1.9-.8-3.7-2.1-5-1.3-1.3-3.1-2.1-5-2.1H22.1c-1.9,0-3.7.8-5,2.1-1.3,1.3-2.1,3.1-2.1,5v11.1c0,1.9.8,3.7,2.1,5,1.3,1.3,3,2.1,5,2.1h0ZM110.7,456.8v-93.5c0-6.5-2.7-12.4-6.9-16.6-4.3-4.3-10.2-6.9-16.6-6.9s-12.4,2.6-16.6,6.9c-4.3,4.3-6.9,10.2-6.9,16.6v93.5h47.1ZM125.7,363.4v93.5h33.5v-93.5c0-10.6,4.3-20.2,11.3-27.2,7-7,16.6-11.3,27.2-11.3s20.2,4.3,27.2,11.3c7,7,11.3,16.6,11.3,27.2v93.5h33.5v-93.5c0-10.6,4.3-20.2,11.3-27.2,7-7,16.6-11.3,27.2-11.3s20.3,4.3,27.2,11.3c7,7,11.3,16.6,11.3,27.2v93.5h33.5v-93.5c0-10.6,4.3-20.2,11.3-27.2,7-7,16.6-11.3,27.2-11.3s20.3,4.3,27.2,11.3c7,7,11.3,16.6,11.3,27.2v93.5h24.8v-160H29.6v63c0,4.1-3.4,7.5-7.5,7.5s-7.5-3.4-7.5-7.5v-64.3c-3.1-1.1-5.8-2.9-8.1-5.2C2.5,286.3,0,280.8,0,274.7v-30.5C0,238.2,2.5,232.7,6.5,228.7c4-4,9.5-6.5,15.6-6.5h9.5v-8.4c0-6.1,2.5-11.6,6.5-15.6,4-4,9.5-6.5,15.6-6.5h65.1c1.2-4.5,2.7-8.9,4.4-13.2,6.4-16.5,15.7-31.5,27.3-44.4,2.8-3.1,7.5-3.3,10.5-.5,3.1,2.8,3.3,7.5.5,10.5-10.4,11.5-18.8,24.9-24.4,39.7-4.7,12.2-7.5,25.3-8.2,38.3h254.6c-1.9-32.2-15.7-61.2-37.1-82.6-23-23.1-54.9-37.4-90.1-37.4s-25.1,1.9-36.7,5.4c-12,3.6-23.3,9-33.5,15.7-3.5,2.3-8.1,1.3-10.4-2.1-2.3-3.4-1.4-8.1,2.1-10.3,11.5-7.6,24.1-13.6,37.5-17.6,10.7-3.2,21.9-5.2,33.5-5.8V7.5C248.5,3.4,251.9,0,256,0h89.9c4.1,0,7.5,3.4,7.5,7.5s-.5,3-1.3,4.2l-13.2,21.9,13.4,22.2c2.1,3.5,1,8.2-2.6,10.3-1.2.7-2.5,1.1-3.9,1.1h-82.4v20.4c36.4,1.9,69.1,17.4,93.2,41.6,17.2,17.1,30,38.7,36.6,62.8h65c6.1,0,11.6,2.5,15.6,6.5,4,4,6.5,9.5,6.5,15.6v8.4h9.5c6.1,0,11.6,2.5,15.6,6.5s6.5,9.5,6.5,15.6v30.5c0,6.1-2.5,11.6-6.5,15.6-2.3,2.3-5,4.1-8.1,5.2v162.7c3.1,1.1,5.8,2.9,8.1,5.2,4,4,6.5,9.5,6.5,15.6v11.1c0,6.1-2.5,11.6-6.5,15.6s-9.5,6.5-15.6,6.5H22.1c-6.1,0-11.6-2.5-15.6-6.5C2.5,501.5,0,496,0,489.9v-11.1c0-6.1,2.5-11.6,6.5-15.6,2.2-2.3,5-4,8.1-5.2v-64.3c0-4.1,3.3-7.5,7.5-7.5s7.5,3.3,7.5,7.5v63h19v-93.5c0-10.6,4.3-20.2,11.3-27.2,7-7,16.6-11.3,27.2-11.3s20.2,4.3,27.2,11.3c7,7,11.3,16.6,11.3,27.2h0ZM442.7,456.8v-93.5c0-6.5-2.7-12.4-6.9-16.6-4.3-4.3-10.1-6.9-16.6-6.9s-12.4,2.6-16.6,6.9c-4.3,4.3-6.9,10.2-6.9,16.6v93.5h47.1ZM332,456.8v-93.5c0-6.5-2.7-12.4-6.9-16.6-4.3-4.3-10.1-6.9-16.6-6.9s-12.4,2.6-16.6,6.9c-4.3,4.3-6.9,10.2-6.9,16.6v93.5h47.1ZM221.3,456.8v-93.5c0-6.5-2.7-12.4-6.9-16.6-4.3-4.3-10.1-6.9-16.6-6.9s-12.4,2.6-16.6,6.9c-4.3,4.3-6.9,10.2-6.9,16.6v93.5h47.1ZM332.6,15h-69.1v37.1h69.1l-8.8-14.5c-1.4-2.3-1.6-5.4,0-7.9l8.8-14.7ZM396.7,206.8c.8,5,1.4,10.2,1.6,15.4h67.2v-8.4c0-2-.8-3.7-2.1-5-1.3-1.3-3.1-2.1-5-2.1h-61.7ZM113.7,222.2c.3-5.2.8-10.4,1.6-15.4h-61.8c-1.9,0-3.7.8-5,2.1-1.3,1.3-2.1,3-2.1,5v8.4h67.2ZM22.1,281.8h467.9c1.9,0,3.7-.8,5-2.1,1.3-1.3,2.1-3,2.1-5v-30.5c0-1.9-.8-3.7-2.1-5-1.3-1.3-3.1-2.1-5-2.1H22.1c-1.9,0-3.7.8-5,2.1-1.3,1.3-2.1,3-2.1,5v30.5c0,2,.8,3.7,2.1,5,1.3,1.3,3,2.1,5,2.1Z"/>
    </g>
  </g>
</svg>