<?xml version="1.0" encoding="UTF-8"?>
<svg id="Layer_1" xmlns="http://www.w3.org/2000/svg" version="1.1" viewBox="0 0 154 155">
  <!-- Generator: Adobe Illustrator 30.4.0, SVG Export Plug-In . SVG Version: 2.1.4 Build 226)  -->
  <g isolation="isolate">
    <g id="Layer_11" data-name="Layer_1">
      <path d="M153.5,75C153.5,33.6,119.9,0,78.5,0S3.5,33.6,3.5,75s33.6,75,75,75,75-33.6,75-75Z" fill="#fff"/>
      <path d="M147.9,97.2c-10,40.2-50.7,64.6-90.9,54.6C16.9,141.8-7.6,101.1,2.4,61,12.4,20.8,53.1-3.7,93.3,6.3c40.2,10,64.6,50.7,54.6,90.9Z" fill="#378aec"/>
      <path d="M147.9,97.2c-10,40.2-50.7,64.6-90.9,54.6C16.9,141.8-7.6,101.1,2.4,61,12.4,20.8,53.1-3.7,93.3,6.3c40.2,10,64.6,50.7,54.6,90.9Z" fill="#378aec"/>
      <path d="M153.5,75c0,41.4-33.6,75-75,75S3.5,116.4,3.5,75,37,0,78.5,0s75,33.6,75,75Z" fill="#57a5ff"/>
      <path d="M18.5,75c0-33.1,26.9-60,60-60s60,26.9,60,60-26.9,60-60,60-.7,0-1.1,0c31.5-.6,56.8-26.3,56.8-57.9s-25.9-57.9-57.9-57.9-57.3,25.4-57.9,56.8v-1.1l.1.1Z" fill="#378aec" fill-rule="evenodd"/>
    </g>
  </g>
  <path d="M89.094,50.05h-24.188c-3.22,0-4.832,0-6.289.451-1.289.399-2.485,1.052-3.518,1.92-1.168.983-2.038,2.338-3.78,5.047l-7.689,11.961c-1.15,1.789-1.726,2.685-1.882,3.627-.138.831-.046,1.685.265,2.466.353.888,1.105,1.639,2.611,3.145l28.568,28.568c1.334,1.334,1.999,2.001,2.769,2.249.676.221,1.403.221,2.08,0,.768-.249,1.435-.915,2.767-2.248l28.569-28.569c1.506-1.506,2.257-2.257,2.611-3.145.311-.783.403-1.636.265-2.466-.156-.941-.732-1.837-1.882-3.627l-7.689-11.961c-1.743-2.709-2.614-4.064-3.78-5.047-1.033-.869-2.229-1.522-3.518-1.92-1.458-.451-3.067-.451-6.29-.451h.001Z" fill="#fff"/>
  <path d="M84.516,59.485c.393-1.062,1.895-1.062,2.289,0l2.715,7.339c.163.441.511.789.952.953l7.339,2.715c1.062.393,1.062,1.894,0,2.289l-7.339,2.715c-.441.163-.789.511-.953.95l-2.715,7.339c-.393,1.063-1.895,1.063-2.289,0l-2.715-7.339c-.163-.44-.511-.788-.952-.95l-7.338-2.716c-1.063-.393-1.063-1.895,0-2.289l7.338-2.715c.441-.163.789-.511.953-.952,0,0,2.715-7.339,2.715-7.339Z" fill="#30a1f5"/>
</svg>