<?xml version="1.0" encoding="UTF-8"?>
<svg xmlns="http://www.w3.org/2000/svg" version="1.1" viewBox="0 0 64 64">
  <defs>
    <style>
      .cls-1 {
        fill: #dfbcfe;
      }
    </style>
  </defs>
  <!-- Generator: Adobe Illustrator 28.6.0, SVG Export Plug-In . SVG Version: 1.2.0 Build 709)  -->
  <g>
    <g id="Layer_1">
      <g id="_x31_8_hat_x2C__clothes_x2C__accessory_x2C__mafia_x2C__criminal_x2C__gang">
        <g>
          <path class="cls-1" d="M32,51.5C15.1,51.5,0,45.9,0,41.5s4-3.3,11.3-4.5h.5c.5-.2,1.1.2,1.1.7s-.3,1.1-.8,1.1h-.5c-4.3.8-9.6,1.7-9.6,2.6,0,2,12.1,8,30,8s30-6,30-8-5.3-1.8-9.6-2.5h-.5c-.5-.2-.9-.7-.8-1.2,0-.5.6-.9,1.1-.8h.5c7.3,1.3,11.3,1.9,11.3,4.6,0,4.4-15.1,10-32,10Z"/>
          <path class="cls-1" d="M11,43.5c0,0-.1,0-.2,0-.5-.1-.9-.6-.8-1.2l6-29c.1-.5.6-.9,1.2-.8.5.1.9.6.8,1.2l-6,29c0,.5-.5.8-1,.8Z"/>
          <path class="cls-1" d="M53,43.5c-.5,0-.9-.3-1-.8l-6-29c-.1-.5.2-1.1.8-1.2.5-.1,1.1.2,1.2.8l6,29c.1.5-.2,1.1-.8,1.2,0,0-.1,0-.2,0Z"/>
          <path class="cls-1" d="M32,18.5c-.6,0-1-.4-1-1s.4-1,1-1c2,0,3.5-.7,5.2-1.6,2.4-1.1,5.1-2.4,9.8-2.4s1,.4,1,1-.4,1-1,1c-4.2,0-6.6,1.1-8.9,2.2-1.9.9-3.6,1.7-6.1,1.7Z"/>
          <path class="cls-1" d="M32,18.5c-2.4,0-4.2-.9-6.1-1.7-2.3-1.1-4.7-2.2-8.9-2.2s-1-.4-1-1,.4-1,1-1c4.7,0,7.4,1.3,9.8,2.4,1.7.8,3.2,1.6,5.2,1.6s1,.4,1,1-.4,1-1,1Z"/>
          <path class="cls-1" d="M32,45.5c-13,0-20.9-1.9-21.2-2-.5-.1-.9-.7-.7-1.2.1-.5.7-.9,1.2-.7,0,0,8.1,2,20.8,2s20.7-2,20.8-2c.5-.1,1.1.2,1.2.7.1.5-.2,1.1-.7,1.2-.3,0-8.3,2-21.2,2Z"/>
          <path class="cls-1" d="M32,40.5c-10.4,0-17.6-1.3-20.2-1.8-.5-.1-.9-.6-.8-1.2s.6-.9,1.2-.8c2.6.5,9.6,1.8,19.8,1.8s17.2-1.2,19.8-1.8c.5-.1,1.1.2,1.2.8s-.2,1.1-.8,1.2c-2.6.5-9.8,1.8-20.2,1.8Z"/>
          <path class="cls-1" d="M29,45.5c-.6,0-1-.4-1-1v-5c0-.6.4-1,1-1s1,.4,1,1v5c0,.6-.4,1-1,1Z"/>
          <path class="cls-1" d="M35,45.5c-.6,0-1-.4-1-1v-5c0-.6.4-1,1-1s1,.4,1,1v5c0,.6-.4,1-1,1Z"/>
        </g>
      </g>
    </g>
  </g>
</svg>