<svg width="60" height="60" viewBox="0 0 60 60" fill="none" xmlns="http://www.w3.org/2000/svg">
<path fill-rule="evenodd" clip-rule="evenodd" d="M30 3.125C31.0355 3.125 31.875 3.96447 31.875 5V10C31.875 11.0355 31.0355 11.875 30 11.875C28.9645 11.875 28.125 11.0355 28.125 10V5C28.125 3.96447 28.9645 3.125 30 3.125ZM13.6742 13.6742C14.4064 12.9419 15.5936 12.9419 16.3258 13.6742L17.184 14.5323C17.9162 15.2646 17.9162 16.4517 17.184 17.184C16.4517 17.9162 15.2646 17.9162 14.5323 17.184L13.6742 16.3258C12.9419 15.5936 12.9419 14.4064 13.6742 13.6742ZM46.3258 13.6742C47.0581 14.4064 47.0581 15.5936 46.3258 16.3258L45.4677 17.184C44.7354 17.9162 43.5483 17.9162 42.816 17.184C42.0838 16.4517 42.0838 15.2646 42.816 14.5323L43.6742 13.6742C44.4064 12.9419 45.5936 12.9419 46.3258 13.6742ZM3.125 30C3.125 28.9645 3.96447 28.125 5 28.125H10C11.0355 28.125 11.875 28.9645 11.875 30C11.875 31.0355 11.0355 31.875 10 31.875H5C3.96447 31.875 3.125 31.0355 3.125 30ZM48.125 30C48.125 28.9645 48.9645 28.125 50 28.125H55C56.0355 28.125 56.875 28.9645 56.875 30C56.875 31.0355 56.0355 31.875 55 31.875H50C48.9645 31.875 48.125 31.0355 48.125 30ZM17.1834 42.8166C17.9157 43.5488 17.9157 44.736 17.1834 45.4682L16.3258 46.3258C15.5936 47.0581 14.4064 47.0581 13.6742 46.3258C12.9419 45.5936 12.9419 44.4064 13.6742 43.6742L14.5318 42.8166C15.264 42.0843 16.4512 42.0843 17.1834 42.8166ZM42.8166 42.8166C43.5488 42.0843 44.736 42.0843 45.4682 42.8166L46.3258 43.6742C47.0581 44.4064 47.0581 45.5936 46.3258 46.3258C45.5936 47.0581 44.4064 47.0581 43.6742 46.3258L42.8166 45.4682C42.0843 44.736 42.0843 43.5488 42.8166 42.8166ZM30 48.125C31.0355 48.125 31.875 48.9645 31.875 50V55C31.875 56.0355 31.0355 56.875 30 56.875C28.9645 56.875 28.125 56.0355 28.125 55V50C28.125 48.9645 28.9645 48.125 30 48.125Z" fill="#E1E4EE"/>
<path d="M17.5 27.6488C17.5 34.0046 22.5243 37.3915 26.2022 40.423C27.5 41.4928 28.75 42.5 30 42.5C31.25 42.5 32.5 41.4928 33.7978 40.423C37.4757 37.3915 42.5 34.0046 42.5 27.6488C42.5 21.2929 35.6248 16.7855 30 22.8959C24.3752 16.7855 17.5 21.2929 17.5 27.6488Z" fill="#CC60FE"/>
</svg>
