<?xml version="1.0" encoding="UTF-8"?>
<svg id="Layer_1" xmlns="http://www.w3.org/2000/svg" version="1.1" viewBox="0 0 156 156">
  <!-- Generator: Adobe Illustrator 30.4.0, SVG Export Plug-In . SVG Version: 2.1.4 Build 226)  -->
  <g id="Layer_11">
    <g id="Layer_1-2">
      <g id="Layer_1-21">
        <path d="M149.338,98.664c-10,40.2-50.7,64.6-90.9,54.6C18.338,143.264-6.162,102.564,3.838,62.464,13.838,22.264,54.538-2.136,94.738,7.864c40.2,10,64.6,50.7,54.6,90.8Z" fill="#483637"/>
        <circle cx="79.938" cy="76.464" r="75" fill="#776464"/>
        <path d="M19.938,76.464c0-33.1,26.9-60,60-60s60,26.9,60,60-26.9,60-60,60h-1.1c31.5-.6,56.8-26.3,56.8-57.9s-25.9-57.9-57.9-57.9-57.3,25.4-57.9,56.8c.1-.3.1-.6.1-1Z" fill="#483637" fill-rule="evenodd"/>
        <path d="M120.944,56.96c-1.12-1.62-8.39-11.67-10.72-13.63-.12-.1-.25-.22-.39-.34-.94-.83-2.37-2.09-4.57-2.84-1.13-.38-2.32-.6-3.53-.65h-45.82c-1.02.01-2.03.13-3.01.36-.89.21-2.68.75-4.65,2.05-1.04.69-1.97,1.51-2.94,2.58-1.62,1.8-10.2,12.47-11.4,16.11-1.6,4.85,1.67,8.88,4.06,11.82.41.5.8.98,1.16,1.45,3.22,4.25,16.53,21.36,20.9,26.91.28.35.84,1.07,1.55,1.99,4.75,6.09,7.44,9.51,8.03,10.12,1.75,1.81,3.26,3.37,5.8,4.14.69.2,1.77.45,3.07.45.91,0,1.93-.12,2.99-.46,2.01-.65,3.31-1.83,5.45-4.23,2.49-2.79,9.29-11.53,13.35-16.75,1.2-1.54,2.13-2.74,2.59-3.31l9.7-12.21c.15-.19,5.14-6.51,5.3-6.7.35-.45,5.05-5.96,5.41-9.22.27-2.42-.52-4.99-2.33-7.64ZM83.194,109.46c-1.89,2.11-2.51,2.56-3.26,2.8-1.26.41-2.47.16-3.07-.02-1.25-.37-2.02-1.13-3.64-2.81-.26-.27-1.2-1.46-2.38-2.95,0-.68-.01-1.54,0-2.53,0-1.56-.01-3.12-.01-4.68-.01-2.45-.01-4.39,0-5.72.01-.5.03-3.55.03-5.3v-3.46c0-.1.15-2.32,1.48-3.98,1.87-2.33,5.11-2.32,6.06-2.32,1.05,0,3.35,0,5.01,1.64.93.91,1.34,1.99,1.52,2.59.35,1.16.46,2.39.47,3.6.01,1.47.02,2.93.02,4.39.02,2.4.03,4.8.03,7.21.01,2.94.02,5.89.02,8.83-.94,1.15-1.73,2.1-2.28,2.71ZM118.304,64.05c-.19,1.74-3.97,6.17-4.36,6.67-.16.19-5.25,6.63-5.31,6.7l-9.68,12.2c-.47.58-1.41,1.79-2.62,3.35-1.47,1.89-3.44,4.42-5.43,6.96,0-.88.01-1.75.02-2.63.05-3.72.18-7.45.1-11.16-.09-3.95-.68-7.6-3.35-10.17-1.32-1.27-2.9-1.98-3.22-2.12-2.9-1.35-7.62-1.13-9.81-.01-.68.26-1.36.56-1.99.92-.22.13-.64.42-.92.61-.36.24-.66.45-.86.59-.01-.73-.01-1.46-.01-2.19v-14.98c0-2.37-.01-4.74-.01-7.11-.05-.27-.19-.73-.56-1.16-.78-.91-1.96-.88-2.14-.88-.24.01-1.17.04-1.95.77-.5.47-.7,1.01-.78,1.28-.02,15.93-.04,31.86-.06,47.79-.64-.82-1.14-1.46-1.4-1.79-4.36-5.54-17.64-22.6-20.85-26.84-.39-.51-.82-1.04-1.26-1.58-2.3-2.84-3.88-5.01-3.19-7.11.7-2.13,7.71-11.38,10.36-14.32.68-.75,1.31-1.31,1.99-1.75,1.41-.93,2.67-1.28,3.03-1.36.62-.15,1.26-.23,1.88-.23h45.67c.71.03,1.4.16,2.06.38,1.25.43,2.12,1.19,2.88,1.87.17.14.33.28.47.41,1.4,1.17,7.59,9.39,9.81,12.63,1.12,1.63,1.62,3.06,1.49,4.26h0Z" fill="#fff"/>
        <path id="Star" d="M93.108,49.219c.298-.805,1.437-.805,1.735,0l2.059,5.565c.123.335.388.598.721.722l5.565,2.059c.805.298.805,1.436,0,1.735l-5.565,2.059c-.335.123-.598.388-.722.721l-2.059,5.565c-.298.806-1.437.806-1.735,0l-2.059-5.565c-.123-.334-.388-.597-.721-.721l-5.564-2.059c-.806-.298-.806-1.437,0-1.735l5.564-2.059c.335-.123.598-.388.722-.721l2.059-5.565h0Z" fill="#fff"/>
      </g>
    </g>
  </g>
</svg>