<?xml version="1.0" encoding="UTF-8"?>
<svg id="Layer_1" xmlns="http://www.w3.org/2000/svg" viewBox="0 0 258.688 276.729">
  <defs>
    <style>
      .cls-1 {
        fill: #efebe5;
      }

      .cls-2 {
        fill: #0e0e0e;
      }
    </style>
  </defs>
  <g id="Layer_1-2" data-name="Layer_1">
    <g id="Stroke-_Brown">
      <path class="cls-1" d="M255.845,126.388c-.9,33-14.9,65.8-21,79.3-7,15.4-15.2,29-23.6,41.6-21.2,31.8-46.7,30.3-57.7,4.3-15.2.6-31.9.7-46.7.2-4.8,14.6-14.9,20.5-23.5,20.8-10.8.4-23.5-7.5-35.5-25.4-8.4-12.5-16.6-26.2-23.6-41.6-6.1-13.5-20.1-46.3-21-79.3-.7-24.2,6.8-46.4,19.3-62.9,4.6-6.1,13-13.7,19.7-18.8-.4-.2-.8-.3-1.1-.5-12-5.9-17.8-15.3-19.7-21.4-2-6.6-1-13,3.9-17.4,5.8-5.2,16.6-3,22,3,4.8,5.3,13.1,13.7,21.1,20.4,5.8-3.9,13.7-8.1,23.3-11.4,10.6-3.6,23.4-6.2,37.7-6.2,27.2,0,49.1,9.3,61.3,17.4,7.9-6.7,16-14.9,20.8-20.1,5.5-6,16.2-8.1,22-3,4.9,4.4,6,10.8,3.9,17.4-1.9,6.1-7.7,15.5-19.7,21.4h-.3c10.4,8.3,21.8,21.7,27.7,33.6,7.3,14.1,11.2,30.8,10.7,48.5v.1Z"/>
      <path class="cls-2" d="M82.334,276.703c-12.52,0-25.69-9.459-37.187-26.753-10.148-15.223-17.722-28.575-23.833-42.021C7.844,178.119.689,151.05.046,127.47c-.692-23.921,6.378-46.934,19.908-64.793,5.057-6.706,13.839-14.573,20.297-19.393,1.328-.991,3.208-.717,4.199.61.991,1.328.718,3.208-.61,4.199-5.918,4.417-14.42,11.997-19.1,18.202-12.71,16.778-19.349,38.442-18.696,61.007.622,22.785,7.598,49.077,20.735,78.151,5.971,13.138,13.396,26.222,23.362,41.172,10.426,15.683,22.415,24.49,32.893,24.065,3.47-.121,15.202-1.829,20.761-18.738.518-1.574,2.213-2.433,3.787-1.913,1.574.518,2.43,2.213,1.913,3.786-5.382,16.369-17.086,22.542-26.246,22.861-.304.012-.61.017-.916.017Z"/>
      <path class="cls-2" d="M63.245,187.99c-.357,0-.72-.064-1.073-.199-5.39-2.065-9.599-4.536-12.509-7.343-17.46-16.94-23.994-44.189-21.28-61.231,3.284-21.543,30.567-41.132,42.144-48.554,1.396-.894,3.25-.488,4.145.907s.488,3.25-.906,4.145c-22.68,14.539-37.429,31.147-39.454,44.427-2.514,15.786,4.104,41.035,19.523,55.995,2.321,2.238,5.851,4.276,10.484,6.052,1.547.593,2.321,2.328,1.728,3.875-.458,1.194-1.595,1.928-2.802,1.928Z"/>
      <path class="cls-2" d="M91.645,208.289h-16c-8.547,0-15.5-6.953-15.5-15.5v-12.207l4.04,1.492c9.391,3.47,22.87,5.527,40.063,6.116l2.897.099v4.5c0,8.547-6.953,15.5-15.5,15.5ZM66.145,189.045v3.743c0,5.238,4.262,9.5,9.5,9.5h16c4.805,0,8.788-3.585,9.414-8.221-14.201-.643-25.91-2.327-34.914-5.022Z"/>
      <path class="cls-2" d="M78.245,128.289c-12.473,0-25.1-3.984-25.1-11.6s12.626-11.6,25.1-11.6,25.1,3.984,25.1,11.6-12.627,11.6-25.1,11.6ZM78.245,111.088c-12.407,0-19.1,3.975-19.1,5.6s6.693,5.6,19.1,5.6,19.1-3.975,19.1-5.6-6.693-5.6-19.1-5.6Z"/>
      <g>
        <ellipse class="cls-2" cx="116.845" cy="68.588" rx="4.3" ry="5.7"/>
        <path class="cls-2" d="M116.845,75.789c-3.198,0-5.8-3.23-5.8-7.2s2.602-7.2,5.8-7.2,5.8,3.23,5.8,7.2-2.602,7.2-5.8,7.2ZM116.845,64.388c-1.518,0-2.8,1.923-2.8,4.2s1.282,4.2,2.8,4.2,2.8-1.923,2.8-4.2-1.282-4.2-2.8-4.2Z"/>
      </g>
      <path class="cls-2" d="M68.248,32.289c-.965,0-1.913-.465-2.492-1.327-.925-1.375-.56-3.239.815-4.163,4.854-3.265,12.959-7.953,23.999-11.748,12.436-4.223,25.445-6.363,38.675-6.363,33.403,0,56.635,13.701,62.959,17.901,1.381.917,1.757,2.778.84,4.159-.916,1.38-2.779,1.756-4.158.839-5.971-3.964-27.917-16.899-59.641-16.899-12.573,0-24.932,2.032-36.735,6.041-10.414,3.58-18.034,7.985-22.591,11.049-.514.346-1.095.511-1.671.511Z"/>
      <path class="cls-2" d="M177.716,276.729c-.785,0-1.567-.036-2.35-.108-10.544-.976-19.345-8.523-24.779-21.255-.65-1.523.057-3.286,1.581-3.937,1.52-.648,3.286.057,3.937,1.581,4.529,10.609,11.566,16.873,19.814,17.636,10.592.982,22.478-7.193,32.63-22.422,9.966-14.947,17.391-28.031,23.365-41.177,13.135-29.07,20.111-55.362,20.732-78.141.468-16.566-3.021-32.847-10.089-47.084-5.463-11.02-16.267-24.116-26.884-32.589-1.295-1.033-1.507-2.921-.474-4.216,1.034-1.296,2.922-1.507,4.216-.474,11.241,8.971,22.701,22.88,28.517,34.612,7.503,15.113,11.207,32.375,10.712,49.917-.644,23.576-7.798,50.645-21.265,80.451-6.115,13.453-13.689,26.806-23.839,42.028-10.886,16.329-23.521,25.176-35.825,25.177Z"/>
      <path class="cls-2" d="M125.927,255.652c-16.604,0-32.781-.602-44.435-1.984-1.646-.195-2.821-1.688-2.625-3.333s1.692-2.813,3.333-2.626c23.845,2.831,68.877,2.267,94.38-.009,1.638-.146,3.106,1.07,3.255,2.722.147,1.65-1.071,3.107-2.722,3.255-13.848,1.235-32.778,1.976-51.186,1.976Z"/>
      <path class="cls-2" d="M69.953,52.864c-11.644,0-22.982-1.989-30.125-5.48-15.397-7.442-20.159-19.652-21.251-23.216-2.467-8.263-.772-15.54,4.764-20.511C30.728-2.84,43.266-.002,49.557,6.861c15.484,16.802,32.375,30.553,36.844,30.047.952-.122,2.7-1.055,4.725-2.137,6.5-3.472,17.379-9.283,38.32-9.283s31.819,5.811,38.319,9.283c2.024,1.082,3.773,2.015,4.76,2.141.08.009.165.014.254.014,4.807,0,21.352-13.566,36.561-30.071,6.137-6.819,18.937-9.718,26.209-3.201,5.486,4.927,7.225,12.4,4.769,20.504-1.107,3.556-5.894,15.673-21.248,23.222-9.176,4.486-25.26,6.489-40.025,4.992-1.438-.146-2.566-1.295-2.687-2.734-.121-1.439.801-2.76,2.193-3.143,11.639-3.201,15.93-6.299,24.641-15.294,2.521-2.598,4.759-5.077,6.924-7.474,6.587-7.295,11.346-12.566,16.933-13.125,2.673-.203,5.099.195,7.235,1.177-.601-1.285-1.484-2.53-2.741-3.66-4.552-4.079-13.573-1.884-17.767,2.775-3.159,3.43-30.95,33.272-41.973,31.973-2.117-.269-4.212-1.388-6.863-2.804-6.005-3.208-16.055-8.576-35.493-8.576s-29.488,5.368-35.493,8.576c-2.652,1.417-4.747,2.535-6.829,2.8-11.022,1.256-38.848-28.539-41.984-31.943-4.726-5.156-13.547-6.529-17.813-2.78-1.238,1.112-2.12,2.335-2.724,3.608,2.174-1.019,4.618-1.417,7.249-1.146,5.579.558,10.338,5.828,16.924,13.123,2.165,2.397,4.403,4.876,6.923,7.473,8.713,8.997,13.003,12.096,24.643,15.296,1.393.383,2.315,1.704,2.194,3.143s-1.25,2.588-2.687,2.734c-3.264.331-6.592.491-9.896.491ZM228.429,16.546c-.278,0-.562.011-.853.034-3.215.322-7.754,5.349-13.009,11.169-2.098,2.323-4.475,4.955-7.068,7.628-5.038,5.202-8.89,8.697-13.403,11.368,8.821-.459,16.96-2.126,22.332-4.752,10.488-5.156,16.255-13.505,18.153-19.597.191-.631.381-1.367.529-2.176-1.676-2.489-3.832-3.674-6.682-3.674ZM23.781,20.217c.145.775.331,1.518.539,2.214,1.874,6.114,7.626,14.479,18.131,19.557,5.378,2.629,13.522,4.298,22.343,4.758-4.514-2.671-8.366-6.167-13.404-11.37-2.592-2.672-4.97-5.305-7.068-7.628-5.255-5.82-9.793-10.846-13.075-11.174-3.156-.323-5.601.871-7.466,3.643Z"/>
      <path class="cls-2" d="M140.011,194.478c-3.608,0-7.193-.041-10.807-.09-6.215.088-15.732.217-25.192-.203-1.655-.073-2.938-1.476-2.864-3.131.074-1.655,1.502-2.927,3.13-2.863,9.284.415,18.697.283,24.925.197,8.393.112,16.56.183,25.107-.197,1.666-.082,3.058,1.209,3.131,2.863.073,1.655-1.209,3.058-2.863,3.131-4.965.221-9.786.293-14.568.293Z"/>
      <path class="cls-2" d="M195.445,187.99c-1.228,0-2.379-.76-2.821-1.98-.563-1.558.243-3.278,1.801-3.842,4.573-1.654,8.072-3.673,10.399-6,15.467-14.918,22.079-40.18,19.559-56.007-2.041-13.307-16.79-29.916-39.457-44.446-1.395-.894-1.801-2.75-.906-4.145.893-1.394,2.748-1.802,4.145-.907,24.096,15.446,39.852,33.604,42.146,48.571,2.722,17.089-3.811,44.363-21.282,61.214-2.916,2.917-7.155,5.406-12.562,7.362-.337.122-.682.18-1.021.18Z"/>
      <path class="cls-2" d="M182.945,208.289h-16c-8.547,0-15.5-6.953-15.5-15.5v-4.5l2.898-.099c17.273-.588,30.749-2.645,40.054-6.112l4.048-1.51v12.221c0,8.547-6.953,15.5-15.5,15.5ZM157.531,194.069c.627,4.635,4.609,8.22,9.414,8.22h16c5.238,0,9.5-4.262,9.5-9.5v-3.734c-8.954,2.691-20.662,4.374-34.914,5.015Z"/>
      <path class="cls-2" d="M180.445,128.289c-12.473,0-25.1-3.984-25.1-11.6s12.627-11.6,25.1-11.6,25.1,3.984,25.1,11.6-12.627,11.6-25.1,11.6ZM180.445,111.088c-12.406,0-19.1,3.975-19.1,5.6s6.693,5.6,19.1,5.6,19.1-3.975,19.1-5.6-6.693-5.6-19.1-5.6Z"/>
      <g>
        <ellipse class="cls-2" cx="141.745" cy="68.588" rx="4.3" ry="5.7"/>
        <path class="cls-2" d="M141.745,75.789c-3.198,0-5.8-3.23-5.8-7.2s2.602-7.2,5.8-7.2,5.8,3.23,5.8,7.2-2.602,7.2-5.8,7.2ZM141.745,64.388c-1.518,0-2.8,1.923-2.8,4.2s1.282,4.2,2.8,4.2,2.8-1.923,2.8-4.2-1.282-4.2-2.8-4.2Z"/>
      </g>
    </g>
  </g>
</svg>