<svg width="50" height="50" viewBox="0 0 50 50" fill="none" xmlns="http://www.w3.org/2000/svg">
<path d="M4.16699 33.3334C4.16699 27.4408 4.16699 24.4945 5.99757 22.664C7.82816 20.8334 10.7744 20.8334 16.667 20.8334H33.3337C39.2262 20.8334 42.1725 20.8334 44.0031 22.664C45.8337 24.4945 45.8337 27.4408 45.8337 33.3334C45.8337 39.2259 45.8337 42.1722 44.0031 44.0028C42.1725 45.8334 39.2262 45.8334 33.3337 45.8334H16.667C10.7744 45.8334 7.82816 45.8334 5.99757 44.0028C4.16699 42.1722 4.16699 39.2259 4.16699 33.3334Z" fill="#E1E4EE"/>
<path opacity="0.8" d="M26.5625 29.1666C26.5625 28.3037 25.8629 27.6041 25 27.6041C24.1371 27.6041 23.4375 28.3037 23.4375 29.1666V37.5C23.4375 38.3629 24.1371 39.0625 25 39.0625C25.8629 39.0625 26.5625 38.3629 26.5625 37.5V29.1666Z" fill="#CC60FE"/>
<path d="M14.0625 16.6666C14.0625 10.626 18.9594 5.72913 25 5.72913C30.0943 5.72913 34.3787 9.21334 35.593 13.9311C35.8081 14.7668 36.66 15.2699 37.4957 15.0548C38.3314 14.8397 38.8345 13.9879 38.6194 13.1522C37.0584 7.08724 31.5547 2.60413 25 2.60413C17.2335 2.60413 10.9375 8.90012 10.9375 16.6666V20.9471C11.8469 20.8791 12.8805 20.8518 14.0625 20.8407V16.6666Z" fill="#CC60FE"/>
</svg>
