<?xml version="1.0" encoding="UTF-8"?>
<svg xmlns="http://www.w3.org/2000/svg" version="1.1" viewBox="0 0 512 512">
  <defs>
    <style>
      .cls-1 {
        fill: #dfbcfe;
      }
    </style>
  </defs>
  <!-- Generator: Adobe Illustrator 28.6.0, SVG Export Plug-In . SVG Version: 1.2.0 Build 709)  -->
  <g>
    <g id="Layer_1">
      <path class="cls-1" d="M362.7,298.7c-82.3,0-149.3-67-149.3-149.3S280.3,0,362.7,0s149.3,67,149.3,149.3-67,149.3-149.3,149.3ZM362.7,21.3c-70.6,0-128,57.4-128,128s57.4,128,128,128,128-57.4,128-128S433.3,21.3,362.7,21.3Z"/>
      <path class="cls-1" d="M373.3,224h-53.3c-5.9,0-10.7-4.8-10.7-10.7s4.8-10.7,10.7-10.7h53.3c11.8,0,21.3-9.6,21.3-21.3s-9.6-21.3-21.3-21.3h-21.3c-23.5,0-42.7-19.1-42.7-42.7s19.1-42.7,42.7-42.7h53.3c5.9,0,10.7,4.8,10.7,10.7s-4.8,10.7-10.7,10.7h-53.3c-11.8,0-21.3,9.6-21.3,21.3s9.6,21.3,21.3,21.3h21.3c23.5,0,42.7,19.1,42.7,42.7s-19.1,42.7-42.7,42.7Z"/>
      <path class="cls-1" d="M362.7,256c-5.9,0-10.7-4.8-10.7-10.7v-32c0-5.9,4.8-10.7,10.7-10.7s10.7,4.8,10.7,10.7v32c0,5.9-4.8,10.7-10.7,10.7Z"/>
      <path class="cls-1" d="M362.7,96c-5.9,0-10.7-4.8-10.7-10.7v-32c0-5.9,4.8-10.7,10.7-10.7s10.7,4.8,10.7,10.7v32c0,5.9-4.8,10.7-10.7,10.7Z"/>
      <path class="cls-1" d="M74.7,469.3H10.7c-5.9,0-10.7-4.8-10.7-10.7v-192c0-5.9,4.8-10.7,10.7-10.7,72.6,0,110.9,24.4,112.5,25.5,3.8,2.5,5.6,7.1,4.5,11.6l-42.7,168.2c-1.2,4.7-5.5,8-10.3,8h0ZM21.3,448h45l38.6-152.1c-12-5.7-40.3-16.8-83.6-18.4v170.5Z"/>
      <path class="cls-1" d="M277.3,512c-50.3,0-147.7-42.3-201.3-67.6-5.3-2.5-7.6-8.9-5.1-14.2,2.5-5.4,8.9-7.6,14.2-5.1,41.8,19.7,144.2,65.5,192.1,65.5s174.2-60.9,209.4-79.1c-5.5-7.3-17-16.9-38.7-16.9s-44.7,7.9-68.8,15.5c-25.7,8.1-52.2,16.5-75.2,16.5-44,0-102.5-21.1-105-22-5.5-2-8.4-8.1-6.4-13.7,2-5.5,8.1-8.4,13.7-6.4.6.2,57.4,20.7,97.7,20.7s44.7-7.9,68.8-15.5c25.7-8.1,52.2-16.5,75.2-16.5,49.8,0,62.9,37.7,63.4,39.3,1.6,4.9-.5,10.3-5.1,12.8-6.6,3.5-163.1,86.6-229,86.6h0Z"/>
      <path class="cls-1" d="M352,417.9c-5.9,0-10.7-4.8-10.7-10.7v-10.7c0-14.9-10-27.6-24.4-31l-206-49.7c-5.7-1.4-9.3-7.1-7.9-12.9,1.4-5.8,7.3-9.1,12.9-7.9l205.9,49.7c24,5.6,40.8,26.9,40.8,51.8v10.7c0,5.9-4.8,10.7-10.7,10.7Z"/>
    </g>
  </g>
</svg>