<?xml version="1.0" encoding="UTF-8"?>
<svg xmlns="http://www.w3.org/2000/svg" version="1.1" viewBox="0 0 512 512">
  <defs>
    <style>
      .cls-1 {
        fill: #dfbcfe;
      }
    </style>
  </defs>
  <!-- Generator: Adobe Illustrator 28.6.0, SVG Export Plug-In . SVG Version: 1.2.0 Build 709)  -->
  <g>
    <g>
      <g>
        <path class="cls-1" d="M501.3,282.4c6.9-7.1,10.7-16.5,10.7-26.4s-3.8-19.3-10.7-26.4l-34.9-36.1c-2.7-2.8-4-6.7-3.4-10.6l7-49.8c1.4-9.8-1.1-19.6-6.9-27.6s-14.4-13.4-24.2-15.1l-49.5-8.7c-3.9-.7-7.2-3.1-9-6.5l-23.5-44.4c-4.6-8.8-12.4-15.3-21.8-18.3s-19.5-2.4-28.4,2l-45.1,22.1c-3.5,1.7-7.6,1.7-11.1,0l-45.1-22.1c-8.9-4.4-19-5.1-28.4-2-9.4,3.1-17.2,9.6-21.8,18.3l-23.5,44.4c-1.8,3.5-5.1,5.9-9,6.5l-49.5,8.7c-9.8,1.7-18.3,7.1-24.2,15.1s-8.3,17.8-6.9,27.6l7,49.8c.5,3.9-.7,7.7-3.4,10.6l-34.9,36.1C3.8,236.7,0,246.1,0,256s3.8,19.3,10.7,26.4l34.9,36.1c2.7,2.8,4,6.7,3.4,10.6l-7,49.8c-1.4,9.8,1.1,19.6,6.9,27.6s14.4,13.4,24.2,15.1l49.5,8.7c3.9.7,7.2,3.1,9,6.5l23.5,44.4c4.6,8.8,12.4,15.3,21.8,18.3s19.5,2.4,28.4-2l45.1-22.1c3.5-1.7,7.6-1.7,11.1,0l45.1,22.1c5.3,2.6,11,3.9,16.7,3.9s7.9-.6,11.8-1.9c9.4-3.1,17.2-9.6,21.8-18.3l23.5-44.4c1.8-3.5,5.1-5.9,9-6.5l49.5-8.7c9.8-1.7,18.3-7.1,24.2-15.1s8.3-17.8,6.9-27.6l-7-49.8c-.5-3.9.7-7.7,3.4-10.6l34.9-36.1ZM437.9,332.6l7,49.8c1,6.8-3.6,13-10.4,14.2l-49.5,8.7c-5.7,1-11.1,3.3-15.8,6.7-4.7,3.4-8.5,7.9-11.2,12.9l-23.5,44.4c-3.2,6.1-10.6,8.5-16.8,5.4l-45.1-22.1c-5.2-2.5-10.9-3.9-16.7-3.9s-11.5,1.3-16.7,3.9l-45.1,22.1c-6.2,3-13.5.6-16.8-5.4l-23.5-44.4c-2.7-5.1-6.6-9.6-11.2-12.9s-10.1-5.7-15.8-6.7l-49.5-8.7c-6.8-1.2-11.3-7.4-10.3-14.2l7-49.8c.8-5.7.3-11.6-1.5-17-1.8-5.5-4.8-10.5-8.8-14.7l-34.9-36.1c-4.8-4.9-4.8-12.7,0-17.6l34.9-36.1c4-4.1,7-9.2,8.8-14.7s2.3-11.3,1.5-17l-7-49.8c-1-6.8,3.6-13.1,10.3-14.2l49.5-8.7c5.7-1,11.1-3.3,15.8-6.7s8.5-7.9,11.2-12.9l23.5-44.4c3.2-6.1,10.6-8.5,16.8-5.4l45.1,22.1c5.2,2.5,10.9,3.9,16.7,3.9s11.5-1.3,16.7-3.9l45.1-22.1c6.2-3,13.5-.6,16.8,5.4l23.5,44.4c2.7,5.1,6.6,9.6,11.2,12.9,4.7,3.4,10.1,5.7,15.8,6.7l49.5,8.7c6.8,1.2,11.3,7.4,10.4,14.2l-7,49.8c-.8,5.7-.3,11.6,1.5,17,1.8,5.5,4.8,10.5,8.8,14.7l34.9,36.1c4.8,4.9,4.8,12.7,0,17.6l-34.9,36.1c-4,4.1-7,9.2-8.8,14.7-1.8,5.5-2.3,11.3-1.5,17h0Z"/>
        <path class="cls-1" d="M340.9,171.1c-4.9-4.9-13-4.9-17.9,0l-151.9,151.9c-4.9,4.9-4.9,13,0,17.9,2.5,2.5,5.7,3.7,9,3.7s6.5-1.2,9-3.7l151.9-151.9c4.9-4.9,4.9-13,0-17.9Z"/>
        <path class="cls-1" d="M228.5,228.5c9.6-9.6,14.8-22.3,14.8-35.8s-5.3-26.3-14.8-35.8-22.3-14.8-35.8-14.8-26.3,5.3-35.8,14.8-14.8,22.3-14.8,35.8,5.3,26.3,14.8,35.8,22.3,14.8,35.8,14.8c13.5,0,26.3-5.3,35.8-14.8ZM192.7,167.4c14,0,25.3,11.4,25.3,25.3s-11.4,25.3-25.3,25.3-25.3-11.4-25.3-25.3,11.4-25.3,25.3-25.3h0Z"/>
        <path class="cls-1" d="M319.3,268.6c-13.5,0-26.3,5.3-35.8,14.8s-14.8,22.3-14.8,35.8,5.3,26.3,14.8,35.8c9.6,9.6,22.3,14.8,35.8,14.8s26.3-5.3,35.8-14.8,14.8-22.3,14.8-35.8-5.3-26.3-14.8-35.8c-9.6-9.6-22.3-14.8-35.8-14.8ZM319.3,344.6c-14,0-25.3-11.4-25.3-25.3s11.4-25.3,25.3-25.3,25.3,11.4,25.3,25.3-11.4,25.3-25.3,25.3Z"/>
      </g>
    </g>
  </g>
</svg>
