<svg width="57" height="57" viewBox="0 0 57 57" fill="none" xmlns="http://www.w3.org/2000/svg">
<path d="M8.0216 12.0707C7.125 13.3482 7.125 17.1453 7.125 24.7396V28.4795C7.125 41.8699 17.1925 48.368 23.5091 51.1273C25.2225 51.8758 26.0793 52.25 28.5 52.25C30.9207 52.25 31.7775 51.8758 33.4909 51.1273C39.8075 48.368 49.875 41.8699 49.875 28.4795V24.7396C49.875 17.1453 49.875 13.3482 48.9784 12.0707C48.0818 10.7933 44.5115 9.57115 37.3708 7.12688L36.0104 6.6612C32.2882 5.38707 30.427 4.75 28.5 4.75C26.573 4.75 24.7118 5.38707 20.9896 6.6612L19.6292 7.12688C12.4885 9.57115 8.9182 10.7933 8.0216 12.0707Z" fill="#E1E4EE"/>
<path d="M35.7662 24.9364C36.4214 24.2025 36.3577 23.0765 35.6239 22.4213C34.89 21.7661 33.764 21.8299 33.1088 22.5637L25.9554 30.5755L23.8912 28.2637C23.236 27.5299 22.11 27.4661 21.3762 28.1213C20.6424 28.7765 20.5786 29.9025 21.2338 30.6364L24.6267 34.4364C24.9646 34.8149 25.448 35.0313 25.9554 35.0313C26.4628 35.0313 26.9461 34.8149 27.2841 34.4364L35.7662 24.9364Z" fill="#CC60FE"/>
</svg>
