<svg width="57" height="57" viewBox="0 0 57 57" fill="none" xmlns="http://www.w3.org/2000/svg">
<path d="M24.7889 20.4004C26.2732 17.7376 27.0154 16.4063 28.125 16.4062C29.2346 16.4062 29.9768 17.7376 31.4611 20.4004L31.8452 21.0893C32.267 21.846 32.4779 22.2244 32.8067 22.474C33.1355 22.7236 33.5451 22.8163 34.3642 23.0016L35.1099 23.1703C37.9924 23.8225 39.4336 24.1486 39.7765 25.2512C40.1193 26.3539 39.1368 27.5028 37.1718 29.8007L36.6634 30.3952C36.105 31.0482 35.8258 31.3747 35.7002 31.7786C35.5746 32.1825 35.6168 32.6181 35.7012 33.4893L35.778 34.2825C36.0751 37.3484 36.2237 38.8813 35.326 39.5628C34.4283 40.2442 33.0789 39.6229 30.3801 38.3803L29.6819 38.0588C28.9149 37.7057 28.5315 37.5291 28.125 37.5291C27.7185 37.5291 27.3351 37.7057 26.5681 38.0588L25.8699 38.3803C23.1711 39.6229 21.8217 40.2442 20.924 39.5628C20.0263 38.8813 20.1749 37.3484 20.4719 34.2825L20.5488 33.4893C20.6332 32.6181 20.6754 32.1825 20.5498 31.7786C20.4242 31.3747 20.145 31.0482 19.5866 30.3952L19.0782 29.8007C17.1132 27.5028 16.1307 26.3539 16.4735 25.2512C16.8164 24.1486 18.2576 23.8225 21.1401 23.1703L21.8858 23.0016C22.7049 22.8163 23.1145 22.7236 23.4433 22.474C23.7721 22.2244 23.983 21.846 24.4048 21.0893L24.7889 20.4004Z" fill="#CC60FE"/>
<path fill-rule="evenodd" clip-rule="evenodd" d="M28.125 2.92969C29.0958 2.92969 29.8828 3.71669 29.8828 4.6875V9.375C29.8828 10.3458 29.0958 11.1328 28.125 11.1328C27.1542 11.1328 26.3672 10.3458 26.3672 9.375V4.6875C26.3672 3.71669 27.1542 2.92969 28.125 2.92969ZM2.92969 28.125C2.92969 27.1542 3.71669 26.3672 4.6875 26.3672H9.375C10.3458 26.3672 11.1328 27.1542 11.1328 28.125C11.1328 29.0958 10.3458 29.8828 9.375 29.8828H4.6875C3.71669 29.8828 2.92969 29.0958 2.92969 28.125ZM45.1172 28.125C45.1172 27.1542 45.9042 26.3672 46.875 26.3672H51.5625C52.5333 26.3672 53.3203 27.1542 53.3203 28.125C53.3203 29.0958 52.5333 29.8828 51.5625 29.8828H46.875C45.9042 29.8828 45.1172 29.0958 45.1172 28.125ZM28.125 45.1172C29.0958 45.1172 29.8828 45.9042 29.8828 46.875V51.5625C29.8828 52.5333 29.0958 53.3203 28.125 53.3203C27.1542 53.3203 26.3672 52.5333 26.3672 51.5625V46.875C26.3672 45.9042 27.1542 45.1172 28.125 45.1172Z" fill="#E1E4EE"/>
<g opacity="0.8">
<path d="M43.4307 12.8195C44.1172 13.506 44.1172 14.619 43.4307 15.3055L42.6262 16.11C41.9397 16.7964 40.8268 16.7964 40.1403 16.11C39.4538 15.4235 39.4538 14.3105 40.1403 13.6241L40.9448 12.8195C41.6313 12.1331 42.7443 12.1331 43.4307 12.8195Z" fill="#E1E4EE"/>
<path d="M12.8195 12.8198C13.506 12.1333 14.619 12.1333 15.3055 12.8198L16.11 13.6243C16.7964 14.3108 16.7964 15.4238 16.11 16.1103C15.4235 16.7967 14.3105 16.7967 13.6241 16.1103L12.8195 15.3057C12.1331 14.6193 12.1331 13.5063 12.8195 12.8198Z" fill="#E1E4EE"/>
<path d="M16.1097 40.1406C16.7962 40.827 16.7962 41.94 16.1097 42.6265L15.3057 43.4305C14.6192 44.117 13.5062 44.117 12.8198 43.4305C12.1333 42.744 12.1333 41.631 12.8198 40.9446L13.6238 40.1406C14.3103 39.4541 15.4232 39.4541 16.1097 40.1406Z" fill="#E1E4EE"/>
<path d="M40.1402 40.1411C40.8267 39.4546 41.9397 39.4546 42.6262 40.1411L43.4302 40.9451C44.1166 41.6316 44.1166 42.7445 43.4302 43.431C42.7437 44.1175 41.6307 44.1175 40.9442 43.431L40.1402 42.627C39.4538 41.9405 39.4538 40.8275 40.1402 40.1411Z" fill="#E1E4EE"/>
</g>
</svg>
