<svg version="1.1" viewBox="0.0 0.0 991.0 595.0" fill="none" stroke="none" stroke-linecap="square" stroke-miterlimit="10" width="991" height="595" xmlns:xlink="http://www.w3.org/1999/xlink" xmlns="http://www.w3.org/2000/svg"><path fill="#ffffff" fill-opacity="0.0" d="M0 0L991.0 0L991.0 595.0L0 595.0L0 0Z" fill-rule="nonzero"/><path fill="#46bdc6" d="M495.5 29.75C569.43115 29.75 640.072 60.319027 690.68134 114.21251L593.0907 205.85626C567.786 178.90952 532.4656 163.625 495.5 163.625Z" fill-rule="nonzero"/><path fill="#ea4335" d="M690.68134 114.21251C698.3614 122.39094 705.51984 131.04399 712.1143 140.1205L603.8071 218.81026C600.5099 214.272 596.9307 209.94547 593.0907 205.85626Z" fill-rule="nonzero"/><path fill="#fbbc04" d="M712.1143 140.1205C780.2952 233.9635 780.2952 361.0365 712.1143 454.8795L603.8071 376.18976C637.89764 329.26825 637.89764 265.73175 603.8071 218.81026Z" fill-rule="nonzero"/><path fill="#34a853" d="M712.1143 454.8795C661.7363 524.2188 581.2081 565.25 495.5 565.25L495.5 431.375C538.35406 431.375 578.61816 410.8594 603.8071 376.18976Z" fill-rule="nonzero"/><path fill="#4285f4" d="M240.85461 380.2393C214.36935 298.72604 228.50774 209.45982 278.8857 140.1205C329.26367 70.78117 409.79187 29.75 495.5 29.75L495.5 163.625C452.64594 163.625 412.38184 184.1406 387.19284 218.81026C362.00388 253.4799 354.93466 298.113 368.1773 338.86966Z" fill-rule="nonzero"/><path fill="#ff6d01" d="M495.5 565.25C379.50366 565.25 276.69946 490.55838 240.85461 380.2393L368.1773 338.86966C386.09973 394.02917 437.50183 431.375 495.5 431.375Z" fill-rule="nonzero"/><path fill="#dedbe4" d="M41.859375 136.97385Q41.59375 139.23947 40.1875 140.47385Q38.796875 141.6926 36.46875 141.6926Q33.953125 141.6926 32.421875 139.8801Q30.90625 138.0676 30.90625 135.03635L30.90625 133.67697Q30.90625 131.6926 31.609375 130.1926Q32.328125 128.6926 33.625 127.8801Q34.921875 127.0676 36.640625 127.0676Q38.90625 127.0676 40.265625 128.33322Q41.640625 129.59885 41.859375 131.83322L39.96875 131.83322Q39.734375 130.14572 38.90625 129.3801Q38.09375 128.61447 36.640625 128.61447Q34.84375 128.61447 33.8125 129.9426Q32.796875 131.27072 32.796875 133.72385L32.796875 135.09885Q32.796875 137.41135 33.765625 138.78635Q34.734375 140.14572 36.46875 140.14572Q38.03125 140.14572 38.859375 139.4426Q39.703125 138.73947 39.96875 136.97385L41.859375 136.97385ZM43.640625 136.11447Q43.640625 134.55197 44.25 133.3176Q44.859375 132.0676 45.9375 131.39572Q47.03125 130.72385 48.4375 130.72385Q50.59375 130.72385 51.921875 132.22385Q53.265625 133.70822 53.265625 136.1926L53.265625 136.3176Q53.265625 137.86447 52.671875 139.09885Q52.078125 140.3176 50.96875 141.0051Q49.875 141.6926 48.453125 141.6926Q46.3125 141.6926 44.96875 140.1926Q43.640625 138.6926 43.640625 136.23947L43.640625 136.11447ZM45.453125 136.3176Q45.453125 138.08322 46.265625 139.14572Q47.09375 140.20822 48.453125 140.20822Q49.828125 140.20822 50.640625 139.1301Q51.453125 138.05197 51.453125 136.11447Q51.453125 134.36447 50.625 133.28635Q49.796875 132.20822 48.4375 132.20822Q47.09375 132.20822 46.265625 133.27072Q45.453125 134.33322 45.453125 136.3176ZM56.8125 130.92697L56.859375 132.09885Q58.03125 130.72385 60.0 130.72385Q62.21875 130.72385 63.015625 132.42697Q63.546875 131.66135 64.390625 131.1926Q65.234375 130.72385 66.390625 130.72385Q69.859375 130.72385 69.921875 134.41135L69.921875 141.48947L68.109375 141.48947L68.109375 134.52072Q68.109375 133.3801 67.59375 132.8176Q67.078125 132.2551 65.859375 132.2551Q64.859375 132.2551 64.1875 132.86447Q63.53125 133.45822 63.421875 134.47385L63.421875 141.48947L61.609375 141.48947L61.609375 134.5676Q61.609375 132.2551 59.34375 132.2551Q57.5625 132.2551 56.921875 133.77072L56.921875 141.48947L55.109375 141.48947L55.109375 130.92697L56.8125 130.92697ZM74.8125 130.92697L74.859375 132.09885Q76.03125 130.72385 78.0 130.72385Q80.21875 130.72385 81.015625 132.42697Q81.546875 131.66135 82.390625 131.1926Q83.234375 130.72385 84.390625 130.72385Q87.859375 130.72385 87.921875 134.41135L87.921875 141.48947L86.109375 141.48947L86.109375 134.52072Q86.109375 133.3801 85.59375 132.8176Q85.078125 132.2551 83.859375 132.2551Q82.859375 132.2551 82.1875 132.86447Q81.53125 133.45822 81.421875 134.47385L81.421875 141.48947L79.609375 141.48947L79.609375 134.5676Q79.609375 132.2551 77.34375 132.2551Q75.5625 132.2551 74.921875 133.77072L74.921875 141.48947L73.109375 141.48947L73.109375 130.92697L74.8125 130.92697ZM97.640625 140.4426Q96.59375 141.6926 94.546875 141.6926Q92.859375 141.6926 91.96875 140.70822Q91.09375 139.72385 91.078125 137.80197L91.078125 130.92697L92.890625 130.92697L92.890625 137.7551Q92.890625 140.14572 94.84375 140.14572Q96.90625 140.14572 97.59375 138.61447L97.59375 130.92697L99.40625 130.92697L99.40625 141.48947L97.6875 141.48947L97.640625 140.4426ZM103.828125 130.92697L103.890625 132.2551Q105.09375 130.72385 107.046875 130.72385Q110.40625 130.72385 110.421875 134.5051L110.421875 141.48947L108.625 141.48947L108.625 134.48947Q108.609375 133.34885 108.09375 132.80197Q107.59375 132.2551 106.5 132.2551Q105.625 132.2551 104.953125 132.72385Q104.296875 133.1926 103.921875 133.95822L103.921875 141.48947L102.125 141.48947L102.125 130.92697L103.828125 130.92697ZM115.078125 141.48947L113.28125 141.48947L113.28125 130.92697L115.078125 130.92697L115.078125 141.48947ZM113.125 128.11447Q113.125 127.67697 113.390625 127.3801Q113.671875 127.0676 114.1875 127.0676Q114.71875 127.0676 114.984375 127.3801Q115.265625 127.67697 115.265625 128.11447Q115.265625 128.55197 114.984375 128.84885Q114.71875 129.14572 114.1875 129.14572Q113.671875 129.14572 113.390625 128.84885Q113.125 128.55197 113.125 128.11447ZM120.5625 128.36447L120.5625 130.92697L122.546875 130.92697L122.546875 132.3176L120.5625 132.3176L120.5625 138.86447Q120.5625 139.5051 120.828125 139.83322Q121.09375 140.14572 121.734375 140.14572Q122.046875 140.14572 122.59375 140.02072L122.59375 141.48947Q121.875 141.6926 121.203125 141.6926Q120.0 141.6926 119.375 140.95822Q118.765625 140.22385 118.765625 138.86447L118.765625 132.3176L116.84375 132.3176L116.84375 130.92697L118.765625 130.92697L118.765625 128.36447L120.5625 128.36447ZM128.57812 138.84885L131.03125 130.92697L132.96875 130.92697L128.71875 143.11447Q127.734375 145.7551 125.59375 145.7551L125.25 145.72385L124.578125 145.59885L124.578125 144.1301L125.0625 144.17697Q125.984375 144.17697 126.484375 143.80197Q127.0 143.42697 127.328125 142.4426L127.734375 141.36447L123.96875 130.92697L125.9375 130.92697L128.57812 138.84885Z" fill-rule="nonzero"/><path fill="#9e9e9e" d="M33.5625 160.5051L34.921875 160.5051Q36.203125 160.47385 36.921875 159.83322Q37.65625 159.17697 37.65625 158.05197Q37.65625 155.55197 35.171875 155.55197Q34.0 155.55197 33.296875 156.22385Q32.609375 156.89572 32.609375 158.0051L30.796875 158.0051Q30.796875 156.3176 32.03125 155.1926Q33.265625 154.0676 35.171875 154.0676Q37.1875 154.0676 38.328125 155.14572Q39.46875 156.20822 39.46875 158.09885Q39.46875 159.02072 38.859375 159.89572Q38.265625 160.77072 37.234375 161.1926Q38.40625 161.5676 39.046875 162.42697Q39.6875 163.28635 39.6875 164.52072Q39.6875 166.4426 38.4375 167.5676Q37.1875 168.6926 35.171875 168.6926Q33.171875 168.6926 31.921875 167.61447Q30.671875 166.52072 30.671875 164.73947L32.484375 164.73947Q32.484375 165.86447 33.21875 166.53635Q33.953125 167.20822 35.1875 167.20822Q36.484375 167.20822 37.171875 166.53635Q37.875 165.84885 37.875 164.5676Q37.875 163.3176 37.109375 162.66135Q36.359375 161.98947 34.921875 161.97385L33.5625 161.97385L33.5625 160.5051ZM50.84375 162.42697Q50.84375 165.59885 49.765625 167.14572Q48.6875 168.6926 46.375 168.6926Q44.09375 168.6926 43.0 167.17697Q41.90625 165.66135 41.875 162.66135L41.875 160.2551Q41.875 157.11447 42.953125 155.59885Q44.046875 154.0676 46.359375 154.0676Q48.65625 154.0676 49.734375 155.55197Q50.8125 157.02072 50.84375 160.08322L50.84375 162.42697ZM49.046875 159.95822Q49.046875 157.66135 48.390625 156.61447Q47.75 155.55197 46.359375 155.55197Q44.96875 155.55197 44.328125 156.59885Q43.703125 157.64572 43.6875 159.8176L43.6875 162.70822Q43.6875 165.0051 44.34375 166.11447Q45.015625 167.20822 46.375 167.20822Q47.71875 167.20822 48.359375 166.17697Q49.015625 165.14572 49.046875 162.91135L49.046875 159.95822ZM53.15625 167.53635Q53.15625 167.0676 53.4375 166.7551Q53.71875 166.4426 54.265625 166.4426Q54.828125 166.4426 55.109375 166.7551Q55.40625 167.0676 55.40625 167.53635Q55.40625 167.98947 55.109375 168.30197Q54.828125 168.59885 54.265625 168.59885Q53.71875 168.59885 53.4375 168.30197Q53.15625 167.98947 53.15625 167.53635ZM66.84375 162.42697Q66.84375 165.59885 65.765625 167.14572Q64.6875 168.6926 62.375 168.6926Q60.09375 168.6926 59.0 167.17697Q57.90625 165.66135 57.875 162.66135L57.875 160.2551Q57.875 157.11447 58.953125 155.59885Q60.046875 154.0676 62.359375 154.0676Q64.65625 154.0676 65.734375 155.55197Q66.8125 157.02072 66.84375 160.08322L66.84375 162.42697ZM65.046875 159.95822Q65.046875 157.66135 64.390625 156.61447Q63.75 155.55197 62.359375 155.55197Q60.96875 155.55197 60.328125 156.59885Q59.703125 157.64572 59.6875 159.8176L59.6875 162.70822Q59.6875 165.0051 60.34375 166.11447Q61.015625 167.20822 62.375 167.20822Q63.71875 167.20822 64.359375 166.17697Q65.015625 165.14572 65.046875 162.91135L65.046875 159.95822ZM68.78125 157.0051Q68.78125 155.72385 69.59375 154.89572Q70.40625 154.0676 71.6875 154.0676Q72.984375 154.0676 73.78125 154.91135Q74.59375 155.73947 74.59375 157.0676L74.59375 157.7551Q74.59375 159.05197 73.78125 159.86447Q72.96875 160.67697 71.703125 160.67697Q70.4375 160.67697 69.609375 159.86447Q68.78125 159.05197 68.78125 157.6926L68.78125 157.0051ZM70.125 157.7551Q70.125 158.52072 70.546875 159.02072Q70.984375 159.5051 71.703125 159.5051Q72.40625 159.5051 72.828125 159.03635Q73.25 158.55197 73.25 157.72385L73.25 157.0051Q73.25 156.23947 72.828125 155.73947Q72.40625 155.23947 71.6875 155.23947Q70.96875 155.23947 70.546875 155.73947Q70.125 156.23947 70.125 157.03635L70.125 157.7551ZM75.703125 165.0051Q75.703125 163.72385 76.515625 162.89572Q77.328125 162.0676 78.609375 162.0676Q79.890625 162.0676 80.703125 162.89572Q81.53125 163.70822 81.53125 165.0676L81.53125 165.77072Q81.53125 167.03635 80.71875 167.86447Q79.90625 168.6926 78.625 168.6926Q77.359375 168.6926 76.53125 167.8801Q75.703125 167.0676 75.703125 165.70822L75.703125 165.0051ZM77.046875 165.77072Q77.046875 166.53635 77.46875 167.03635Q77.90625 167.52072 78.625 167.52072Q79.328125 167.52072 79.75 167.03635Q80.171875 166.55197 80.171875 165.72385L80.171875 165.0051Q80.171875 164.22385 79.75 163.73947Q79.328125 163.2551 78.609375 163.2551Q77.921875 163.2551 77.484375 163.73947Q77.046875 164.22385 77.046875 165.03635L77.046875 165.77072ZM72.109375 167.41135L71.09375 166.77072L78.03125 155.66135L79.0625 156.30197L72.109375 167.41135Z" fill-rule="nonzero"/><path stroke="#757575" stroke-width="1.0" stroke-linecap="butt" d="M29.75 147.98947L221.75 147.98947L289.7164 147.98947" fill-rule="nonzero"/><path fill="#9e9e9e" d="M291.7164 147.98947C291.7164 146.8849 290.82098 145.98947 289.7164 145.98947C288.61185 145.98947 287.7164 146.8849 287.7164 147.98947C287.7164 149.09404 288.61185 149.98947 289.7164 149.98947C290.82098 149.98947 291.7164 149.09404 291.7164 147.98947" fill-rule="nonzero"/><path fill="#dedbe4" d="M33.28125 495.25235L40.03125 495.25235L40.03125 496.7836L31.40625 496.7836L31.40625 482.56485L33.28125 482.56485L33.28125 495.25235ZM44.078125 496.7836L42.28125 496.7836L42.28125 486.2211L44.078125 486.2211L44.078125 496.7836ZM42.125 483.4086Q42.125 482.9711 42.390625 482.67422Q42.671875 482.36172 43.1875 482.36172Q43.71875 482.36172 43.984375 482.67422Q44.265625 482.9711 44.265625 483.4086Q44.265625 483.8461 43.984375 484.14297Q43.71875 484.43985 43.1875 484.43985Q42.671875 484.43985 42.390625 484.14297Q42.125 483.8461 42.125 483.4086ZM46.671875 491.4086Q46.671875 488.92422 47.8125 487.4711Q48.96875 486.01797 50.890625 486.01797Q52.765625 486.01797 53.84375 487.2836L53.921875 486.2211L55.578125 486.2211L55.578125 500.8461L53.78125 500.8461L53.78125 495.79922Q52.6875 496.98672 50.875 496.98672Q48.953125 496.98672 47.8125 495.50235Q46.671875 494.00235 46.671875 491.5336L46.671875 491.4086ZM48.484375 491.61172Q48.484375 493.43985 49.25 494.4711Q50.015625 495.50235 51.3125 495.50235Q52.921875 495.50235 53.78125 494.08047L53.78125 488.9086Q52.921875 487.50235 51.34375 487.50235Q50.03125 487.50235 49.25 488.54922Q48.484375 489.58047 48.484375 491.61172ZM64.640625 495.73672Q63.59375 496.98672 61.546875 496.98672Q59.859375 496.98672 58.96875 496.00235Q58.09375 495.01797 58.078125 493.0961L58.078125 486.2211L59.890625 486.2211L59.890625 493.04922Q59.890625 495.43985 61.84375 495.43985Q63.90625 495.43985 64.59375 493.9086L64.59375 486.2211L66.40625 486.2211L66.40625 496.7836L64.6875 496.7836L64.640625 495.73672ZM71.078125 496.7836L69.28125 496.7836L69.28125 486.2211L71.078125 486.2211L71.078125 496.7836ZM69.125 483.4086Q69.125 482.9711 69.390625 482.67422Q69.671875 482.36172 70.1875 482.36172Q70.71875 482.36172 70.984375 482.67422Q71.265625 482.9711 71.265625 483.4086Q71.265625 483.8461 70.984375 484.14297Q70.71875 484.43985 70.1875 484.43985Q69.671875 484.43985 69.390625 484.14297Q69.125 483.8461 69.125 483.4086ZM73.671875 491.4086Q73.671875 488.98672 74.828125 487.50235Q75.984375 486.01797 77.84375 486.01797Q79.703125 486.01797 80.78125 487.2836L80.78125 481.7836L82.59375 481.7836L82.59375 496.7836L80.9375 496.7836L80.84375 495.64297Q79.765625 496.98672 77.828125 496.98672Q76.0 496.98672 74.828125 495.48672Q73.671875 493.9711 73.671875 491.54922L73.671875 491.4086ZM75.484375 491.61172Q75.484375 493.4086 76.21875 494.42422Q76.96875 495.43985 78.28125 495.43985Q80.0 495.43985 80.78125 493.9086L80.78125 489.04922Q79.984375 487.54922 78.296875 487.54922Q76.96875 487.54922 76.21875 488.58047Q75.484375 489.61172 75.484375 491.61172ZM87.078125 496.7836L85.28125 496.7836L85.28125 486.2211L87.078125 486.2211L87.078125 496.7836ZM85.125 483.4086Q85.125 482.9711 85.390625 482.67422Q85.671875 482.36172 86.1875 482.36172Q86.71875 482.36172 86.984375 482.67422Q87.265625 482.9711 87.265625 483.4086Q87.265625 483.8461 86.984375 484.14297Q86.71875 484.43985 86.1875 484.43985Q85.671875 484.43985 85.390625 484.14297Q85.125 483.8461 85.125 483.4086ZM92.5625 483.6586L92.5625 486.2211L94.546875 486.2211L94.546875 487.61172L92.5625 487.61172L92.5625 494.1586Q92.5625 494.79922 92.828125 495.12735Q93.09375 495.43985 93.734375 495.43985Q94.046875 495.43985 94.59375 495.31485L94.59375 496.7836Q93.875 496.98672 93.203125 496.98672Q92.0 496.98672 91.375 496.25235Q90.765625 495.51797 90.765625 494.1586L90.765625 487.61172L88.84375 487.61172L88.84375 486.2211L90.765625 486.2211L90.765625 483.6586L92.5625 483.6586ZM100.578125 494.14297L103.03125 486.2211L104.96875 486.2211L100.71875 498.4086Q99.734375 501.04922 97.59375 501.04922L97.25 501.01797L96.578125 500.89297L96.578125 499.42422L97.0625 499.4711Q97.984375 499.4711 98.484375 499.0961Q99.0 498.7211 99.328125 497.73672L99.734375 496.6586L95.96875 486.2211L97.9375 486.2211L100.578125 494.14297Z" fill-rule="nonzero"/><path fill="#9e9e9e" d="M40.25 523.78357L30.9375 523.78357L30.9375 522.4867L35.859375 517.01794Q36.953125 515.76794 37.359375 515.0023Q37.78125 514.22107 37.78125 513.39294Q37.78125 512.28357 37.109375 511.56482Q36.4375 510.84607 35.3125 510.84607Q33.953125 510.84607 33.203125 511.62732Q32.46875 512.39294 32.46875 513.7523L30.65625 513.7523Q30.65625 511.78357 31.921875 510.58044Q33.1875 509.3617 35.3125 509.3617Q37.296875 509.3617 38.4375 510.40857Q39.59375 511.45544 39.59375 513.1742Q39.59375 515.28357 36.921875 518.1742L33.109375 522.3148L40.25 522.3148L40.25 523.78357ZM50.84375 517.72107Q50.84375 520.89294 49.765625 522.4398Q48.6875 523.9867 46.375 523.9867Q44.09375 523.9867 43.0 522.47107Q41.90625 520.95544 41.875 517.95544L41.875 515.5492Q41.875 512.40857 42.953125 510.89294Q44.046875 509.3617 46.359375 509.3617Q48.65625 509.3617 49.734375 510.84607Q50.8125 512.3148 50.84375 515.3773L50.84375 517.72107ZM49.046875 515.2523Q49.046875 512.95544 48.390625 511.90857Q47.75 510.84607 46.359375 510.84607Q44.96875 510.84607 44.328125 511.89294Q43.703125 512.9398 43.6875 515.1117L43.6875 518.0023Q43.6875 520.2992 44.34375 521.40857Q45.015625 522.5023 46.375 522.5023Q47.71875 522.5023 48.359375 521.47107Q49.015625 520.4398 49.046875 518.20544L49.046875 515.2523ZM53.15625 522.83044Q53.15625 522.3617 53.4375 522.0492Q53.71875 521.7367 54.265625 521.7367Q54.828125 521.7367 55.109375 522.0492Q55.40625 522.3617 55.40625 522.83044Q55.40625 523.28357 55.109375 523.59607Q54.828125 523.89294 54.265625 523.89294Q53.71875 523.89294 53.4375 523.59607Q53.15625 523.28357 53.15625 522.83044ZM66.84375 517.72107Q66.84375 520.89294 65.765625 522.4398Q64.6875 523.9867 62.375 523.9867Q60.09375 523.9867 59.0 522.47107Q57.90625 520.95544 57.875 517.95544L57.875 515.5492Q57.875 512.40857 58.953125 510.89294Q60.046875 509.3617 62.359375 509.3617Q64.65625 509.3617 65.734375 510.84607Q66.8125 512.3148 66.84375 515.3773L66.84375 517.72107ZM65.046875 515.2523Q65.046875 512.95544 64.390625 511.90857Q63.75 510.84607 62.359375 510.84607Q60.96875 510.84607 60.328125 511.89294Q59.703125 512.9398 59.6875 515.1117L59.6875 518.0023Q59.6875 520.2992 60.34375 521.40857Q61.015625 522.5023 62.375 522.5023Q63.71875 522.5023 64.359375 521.47107Q65.015625 520.4398 65.046875 518.20544L65.046875 515.2523ZM68.78125 512.2992Q68.78125 511.01794 69.59375 510.18982Q70.40625 509.3617 71.6875 509.3617Q72.984375 509.3617 73.78125 510.20544Q74.59375 511.03357 74.59375 512.3617L74.59375 513.0492Q74.59375 514.34607 73.78125 515.15857Q72.96875 515.97107 71.703125 515.97107Q70.4375 515.97107 69.609375 515.15857Q68.78125 514.34607 68.78125 512.9867L68.78125 512.2992ZM70.125 513.0492Q70.125 513.8148 70.546875 514.3148Q70.984375 514.7992 71.703125 514.7992Q72.40625 514.7992 72.828125 514.33044Q73.25 513.84607 73.25 513.01794L73.25 512.2992Q73.25 511.53357 72.828125 511.03357Q72.40625 510.53357 71.6875 510.53357Q70.96875 510.53357 70.546875 511.03357Q70.125 511.53357 70.125 512.33044L70.125 513.0492ZM75.703125 520.2992Q75.703125 519.01794 76.515625 518.1898Q77.328125 517.3617 78.609375 517.3617Q79.890625 517.3617 80.703125 518.1898Q81.53125 519.0023 81.53125 520.3617L81.53125 521.0648Q81.53125 522.33044 80.71875 523.15857Q79.90625 523.9867 78.625 523.9867Q77.359375 523.9867 76.53125 523.1742Q75.703125 522.3617 75.703125 521.0023L75.703125 520.2992ZM77.046875 521.0648Q77.046875 521.83044 77.46875 522.33044Q77.90625 522.8148 78.625 522.8148Q79.328125 522.8148 79.75 522.33044Q80.171875 521.84607 80.171875 521.01794L80.171875 520.2992Q80.171875 519.51794 79.75 519.03357Q79.328125 518.5492 78.609375 518.5492Q77.921875 518.5492 77.484375 519.03357Q77.046875 519.51794 77.046875 520.33044L77.046875 521.0648ZM72.109375 522.70544L71.09375 522.0648L78.03125 510.95544L79.0625 511.59607L72.109375 522.70544Z" fill-rule="nonzero"/><path stroke="#757575" stroke-width="1.0" stroke-linecap="butt" d="M29.75 503.2836L221.75 503.2836L345.98947 503.2836" fill-rule="nonzero"/><path fill="#9e9e9e" d="M347.98947 503.2836C347.98947 502.17902 347.09406 501.2836 345.98947 501.2836C344.88492 501.2836 343.98947 502.17902 343.98947 503.2836C343.98947 504.38815 344.88492 505.2836 345.98947 505.2836C347.09406 505.2836 347.98947 504.38815 347.98947 503.2836" fill-rule="nonzero"/><path fill="#dedbe4" d="M894.71875 44.885765L890.15625 44.885765L890.15625 57.55764L888.2969 57.55764L888.2969 44.885765L883.7344 44.885765L883.7344 43.33889L894.71875 43.33889L894.71875 44.885765ZM901.71875 48.604515Q901.3125 48.542015 900.84375 48.542015Q899.0625 48.542015 898.4219 50.05764L898.4219 57.55764L896.625 57.55764L896.625 46.99514L898.375 46.99514L898.40625 48.21389Q899.2969 46.792015 900.9219 46.792015Q901.4531 46.792015 901.71875 46.93264L901.71875 48.604515ZM908.0 57.760765Q905.8594 57.760765 904.5 56.354515Q903.15625 54.93264 903.15625 52.573265L903.15625 52.229515Q903.15625 50.667015 903.75 49.43264Q904.3594 48.198265 905.4375 47.49514Q906.5156 46.792015 907.78125 46.792015Q909.84375 46.792015 910.9844 48.15139Q912.125 49.510765 912.125 52.042015L912.125 52.792015L904.96875 52.792015Q905.0 54.354515 905.875 55.323265Q906.75 56.27639 908.09375 56.27639Q909.0625 56.27639 909.71875 55.885765Q910.3906 55.49514 910.8906 54.854515L911.9844 55.71389Q910.65625 57.760765 908.0 57.760765ZM907.78125 48.27639Q906.6875 48.27639 905.9375 49.073265Q905.2031 49.87014 905.03125 51.30764L910.3125 51.30764L910.3125 51.167015Q910.2344 49.792015 909.5625 49.042015Q908.90625 48.27639 907.78125 48.27639ZM921.1406 57.55764Q920.9844 57.24514 920.8906 56.448265Q919.625 57.760765 917.875 57.760765Q916.3125 57.760765 915.3125 56.87014Q914.3125 55.979515 914.3125 54.62014Q914.3125 52.979515 915.5625 52.073265Q916.8281 51.15139 919.09375 51.15139L920.8594 51.15139L920.8594 50.323265Q920.8594 49.37014 920.28125 48.80764Q919.71875 48.24514 918.625 48.24514Q917.65625 48.24514 917.0 48.74514Q916.34375 49.229515 916.34375 49.917015L914.53125 49.917015Q914.53125 49.135765 915.09375 48.40139Q915.65625 47.65139 916.6094 47.229515Q917.5781 46.792015 918.7344 46.792015Q920.5625 46.792015 921.59375 47.71389Q922.625 48.62014 922.6719 50.229515L922.6719 55.08889Q922.6719 56.542015 923.03125 57.40139L923.03125 57.55764L921.1406 57.55764ZM918.1406 56.18264Q919.0 56.18264 919.75 55.74514Q920.5156 55.30764 920.8594 54.604515L920.8594 52.43264L919.4375 52.43264Q916.125 52.43264 916.125 54.37014Q916.125 55.229515 916.6875 55.71389Q917.25 56.18264 918.1406 56.18264ZM931.7656 54.760765Q931.7656 54.02639 931.21875 53.62014Q930.6719 53.21389 929.2969 52.917015Q927.9219 52.62014 927.1094 52.21389Q926.3125 51.80764 925.9219 51.24514Q925.5469 50.667015 925.5469 49.885765Q925.5469 48.58889 926.6406 47.698265Q927.7344 46.792015 929.4531 46.792015Q931.25 46.792015 932.3594 47.729515Q933.4844 48.65139 933.4844 50.08889L931.65625 50.08889Q931.65625 49.354515 931.03125 48.823265Q930.40625 48.27639 929.4531 48.27639Q928.4531 48.27639 927.8906 48.71389Q927.34375 49.135765 927.34375 49.83889Q927.34375 50.479515 927.8594 50.823265Q928.375 51.15139 929.7344 51.46389Q931.09375 51.760765 931.9219 52.18264Q932.7656 52.58889 933.1719 53.18264Q933.5781 53.77639 933.5781 54.62014Q933.5781 56.042015 932.4375 56.90139Q931.3125 57.760765 929.5 57.760765Q928.2344 57.760765 927.25 57.30764Q926.28125 56.854515 925.71875 56.05764Q925.1719 55.24514 925.1719 54.30764L926.9844 54.30764Q927.03125 55.21389 927.7031 55.74514Q928.3906 56.27639 929.5 56.27639Q930.53125 56.27639 931.1406 55.87014Q931.7656 55.448265 931.7656 54.760765ZM942.1406 56.510765Q941.09375 57.760765 939.0469 57.760765Q937.3594 57.760765 936.46875 56.77639Q935.59375 55.792015 935.5781 53.87014L935.5781 46.99514L937.3906 46.99514L937.3906 53.823265Q937.3906 56.21389 939.34375 56.21389Q941.40625 56.21389 942.09375 54.68264L942.09375 46.99514L943.90625 46.99514L943.90625 57.55764L942.1875 57.55764L942.1406 56.510765ZM951.71875 48.604515Q951.3125 48.542015 950.84375 48.542015Q949.0625 48.542015 948.4219 50.05764L948.4219 57.55764L946.625 57.55764L946.625 46.99514L948.375 46.99514L948.40625 48.21389Q949.2969 46.792015 950.9219 46.792015Q951.4531 46.792015 951.71875 46.93264L951.71875 48.604515ZM957.0781 54.917015L959.53125 46.99514L961.46875 46.99514L957.21875 59.18264Q956.2344 61.823265 954.09375 61.823265L953.75 61.792015L953.0781 61.667015L953.0781 60.198265L953.5625 60.24514Q954.4844 60.24514 954.9844 59.87014Q955.5 59.49514 955.8281 58.510765L956.2344 57.43264L952.46875 46.99514L954.4375 46.99514L957.0781 54.917015Z" fill-rule="nonzero"/><path fill="#9e9e9e" d="M915.375 84.55764L913.5469 84.55764L913.5469 72.510765L909.90625 73.854515L909.90625 72.21389L915.09375 70.27639L915.375 70.27639L915.375 84.55764ZM923.0625 76.573265L924.4219 76.573265Q925.7031 76.542015 926.4219 75.90139Q927.15625 75.24514 927.15625 74.12014Q927.15625 71.62014 924.6719 71.62014Q923.5 71.62014 922.7969 72.292015Q922.1094 72.96389 922.1094 74.073265L920.2969 74.073265Q920.2969 72.385765 921.53125 71.260765Q922.7656 70.135765 924.6719 70.135765Q926.6875 70.135765 927.8281 71.21389Q928.96875 72.27639 928.96875 74.167015Q928.96875 75.08889 928.3594 75.96389Q927.7656 76.83889 926.7344 77.260765Q927.90625 77.635765 928.5469 78.49514Q929.1875 79.354515 929.1875 80.58889Q929.1875 82.510765 927.9375 83.635765Q926.6875 84.760765 924.6719 84.760765Q922.6719 84.760765 921.4219 83.68264Q920.1719 82.58889 920.1719 80.80764L921.9844 80.80764Q921.9844 81.93264 922.71875 82.604515Q923.4531 83.27639 924.6875 83.27639Q925.9844 83.27639 926.6719 82.604515Q927.375 81.917015 927.375 80.635765Q927.375 79.385765 926.6094 78.729515Q925.8594 78.05764 924.4219 78.042015L923.0625 78.042015L923.0625 76.573265ZM931.65625 83.604515Q931.65625 83.135765 931.9375 82.823265Q932.21875 82.510765 932.7656 82.510765Q933.3281 82.510765 933.6094 82.823265Q933.90625 83.135765 933.90625 83.604515Q933.90625 84.05764 933.6094 84.37014Q933.3281 84.667015 932.7656 84.667015Q932.21875 84.667015 931.9375 84.37014Q931.65625 84.05764 931.65625 83.604515ZM945.34375 78.49514Q945.34375 81.667015 944.2656 83.21389Q943.1875 84.760765 940.875 84.760765Q938.59375 84.760765 937.5 83.24514Q936.40625 81.729515 936.375 78.729515L936.375 76.323265Q936.375 73.18264 937.4531 71.667015Q938.5469 70.135765 940.8594 70.135765Q943.15625 70.135765 944.2344 71.62014Q945.3125 73.08889 945.34375 76.15139L945.34375 78.49514ZM943.5469 76.02639Q943.5469 73.729515 942.8906 72.68264Q942.25 71.62014 940.8594 71.62014Q939.46875 71.62014 938.8281 72.667015Q938.2031 73.71389 938.1875 75.885765L938.1875 78.77639Q938.1875 81.073265 938.84375 82.18264Q939.5156 83.27639 940.875 83.27639Q942.21875 83.27639 942.8594 82.24514Q943.5156 81.21389 943.5469 78.979515L943.5469 76.02639ZM947.28125 73.073265Q947.28125 71.792015 948.09375 70.96389Q948.90625 70.135765 950.1875 70.135765Q951.4844 70.135765 952.28125 70.979515Q953.09375 71.80764 953.09375 73.135765L953.09375 73.823265Q953.09375 75.12014 952.28125 75.93264Q951.46875 76.74514 950.2031 76.74514Q948.9375 76.74514 948.1094 75.93264Q947.28125 75.12014 947.28125 73.760765L947.28125 73.073265ZM948.625 73.823265Q948.625 74.58889 949.0469 75.08889Q949.4844 75.573265 950.2031 75.573265Q950.90625 75.573265 951.3281 75.104515Q951.75 74.62014 951.75 73.792015L951.75 73.073265Q951.75 72.30764 951.3281 71.80764Q950.90625 71.30764 950.1875 71.30764Q949.46875 71.30764 949.0469 71.80764Q948.625 72.30764 948.625 73.104515L948.625 73.823265ZM954.2031 81.073265Q954.2031 79.792015 955.0156 78.96389Q955.8281 78.135765 957.1094 78.135765Q958.3906 78.135765 959.2031 78.96389Q960.03125 79.77639 960.03125 81.135765L960.03125 81.83889Q960.03125 83.104515 959.21875 83.93264Q958.40625 84.760765 957.125 84.760765Q955.8594 84.760765 955.03125 83.948265Q954.2031 83.135765 954.2031 81.77639L954.2031 81.073265ZM955.5469 81.83889Q955.5469 82.604515 955.96875 83.104515Q956.40625 83.58889 957.125 83.58889Q957.8281 83.58889 958.25 83.104515Q958.6719 82.62014 958.6719 81.792015L958.6719 81.073265Q958.6719 80.292015 958.25 79.80764Q957.8281 79.323265 957.1094 79.323265Q956.4219 79.323265 955.9844 79.80764Q955.5469 80.292015 955.5469 81.104515L955.5469 81.83889ZM950.6094 83.479515L949.59375 82.83889L956.53125 71.729515L957.5625 72.37014L950.6094 83.479515Z" fill-rule="nonzero"/><path stroke="#757575" stroke-width="1.0" stroke-linecap="butt" d="M961.25 64.05764L769.25 64.05764L596.51953 64.05764" fill-rule="nonzero"/><path fill="#9e9e9e" d="M598.51953 64.05764C598.51953 62.953068 597.6241 62.05764 596.51953 62.05764C595.415 62.05764 594.51953 62.953068 594.51953 64.05764C594.51953 65.16221 595.415 66.05764 596.51953 66.05764C597.6241 66.05764 598.51953 65.16221 598.51953 64.05764" fill-rule="nonzero"/><path fill="#dedbe4" d="M893.75 125.144485L887.7969 125.144485L886.4531 128.86324L884.53125 128.86324L889.9531 114.644485L891.59375 114.644485L897.03125 128.86324L895.1094 128.86324L893.75 125.144485ZM888.3594 123.613235L893.2031 123.613235L890.78125 116.956985L888.3594 123.613235ZM898.1719 123.488235Q898.1719 121.06636 899.3281 119.581985Q900.4844 118.09761 902.34375 118.09761Q904.2031 118.09761 905.28125 119.363235L905.28125 113.863235L907.09375 113.863235L907.09375 128.86324L905.4375 128.86324L905.34375 127.72261Q904.2656 129.06636 902.3281 129.06636Q900.5 129.06636 899.3281 127.56636Q898.1719 126.050735 898.1719 123.62886L898.1719 123.488235ZM899.9844 123.69136Q899.9844 125.488235 900.71875 126.50386Q901.46875 127.519485 902.78125 127.519485Q904.5 127.519485 905.28125 125.988235L905.28125 121.12886Q904.4844 119.62886 902.7969 119.62886Q901.46875 119.62886 900.71875 120.66011Q899.9844 121.69136 899.9844 123.69136ZM913.1094 126.41011L915.71875 118.300735L917.5625 118.300735L913.78125 128.86324L912.40625 128.86324L908.5781 118.300735L910.4219 118.300735L913.1094 126.41011ZM921.5781 128.86324L919.78125 128.86324L919.78125 118.300735L921.5781 118.300735L921.5781 128.86324ZM919.625 115.488235Q919.625 115.050735 919.8906 114.75386Q920.1719 114.44136 920.6875 114.44136Q921.21875 114.44136 921.4844 114.75386Q921.7656 115.050735 921.7656 115.488235Q921.7656 115.925735 921.4844 116.22261Q921.21875 116.519485 920.6875 116.519485Q920.1719 116.519485 919.8906 116.22261Q919.625 115.925735 919.625 115.488235ZM930.7656 126.06636Q930.7656 125.331985 930.21875 124.925735Q929.6719 124.519485 928.2969 124.22261Q926.9219 123.925735 926.1094 123.519485Q925.3125 123.113235 924.9219 122.550735Q924.5469 121.97261 924.5469 121.19136Q924.5469 119.894485 925.6406 119.00386Q926.7344 118.09761 928.4531 118.09761Q930.25 118.09761 931.3594 119.03511Q932.4844 119.956985 932.4844 121.394485L930.65625 121.394485Q930.65625 120.66011 930.03125 120.12886Q929.40625 119.581985 928.4531 119.581985Q927.4531 119.581985 926.8906 120.019485Q926.34375 120.44136 926.34375 121.144485Q926.34375 121.78511 926.8594 122.12886Q927.375 122.456985 928.7344 122.769485Q930.09375 123.06636 930.9219 123.488235Q931.7656 123.894485 932.1719 124.488235Q932.5781 125.081985 932.5781 125.925735Q932.5781 127.34761 931.4375 128.20699Q930.3125 129.06636 928.5 129.06636Q927.2344 129.06636 926.25 128.61324Q925.28125 128.16011 924.71875 127.363235Q924.1719 126.550735 924.1719 125.613235L925.9844 125.613235Q926.03125 126.519485 926.7031 127.050735Q927.3906 127.581985 928.5 127.581985Q929.53125 127.581985 930.1406 127.175735Q930.7656 126.75386 930.7656 126.06636ZM939.0 129.06636Q936.8594 129.06636 935.5 127.66011Q934.15625 126.238235 934.15625 123.87886L934.15625 123.53511Q934.15625 121.97261 934.75 120.738235Q935.3594 119.50386 936.4375 118.800735Q937.5156 118.09761 938.78125 118.09761Q940.84375 118.09761 941.9844 119.456985Q943.125 120.81636 943.125 123.34761L943.125 124.09761L935.96875 124.09761Q936.0 125.66011 936.875 126.62886Q937.75 127.581985 939.09375 127.581985Q940.0625 127.581985 940.71875 127.19136Q941.3906 126.800735 941.8906 126.16011L942.9844 127.019485Q941.65625 129.06636 939.0 129.06636ZM938.78125 119.581985Q937.6875 119.581985 936.9375 120.37886Q936.2031 121.175735 936.03125 122.613235L941.3125 122.613235L941.3125 122.47261Q941.2344 121.09761 940.5625 120.34761Q939.90625 119.581985 938.78125 119.581985ZM950.71875 119.91011Q950.3125 119.84761 949.84375 119.84761Q948.0625 119.84761 947.4219 121.363235L947.4219 128.86324L945.625 128.86324L945.625 118.300735L947.375 118.300735L947.40625 119.519485Q948.2969 118.09761 949.9219 118.09761Q950.4531 118.09761 950.71875 118.238235L950.71875 119.91011ZM958.7656 126.06636Q958.7656 125.331985 958.21875 124.925735Q957.6719 124.519485 956.2969 124.22261Q954.9219 123.925735 954.1094 123.519485Q953.3125 123.113235 952.9219 122.550735Q952.5469 121.97261 952.5469 121.19136Q952.5469 119.894485 953.6406 119.00386Q954.7344 118.09761 956.4531 118.09761Q958.25 118.09761 959.3594 119.03511Q960.4844 119.956985 960.4844 121.394485L958.65625 121.394485Q958.65625 120.66011 958.03125 120.12886Q957.40625 119.581985 956.4531 119.581985Q955.4531 119.581985 954.8906 120.019485Q954.34375 120.44136 954.34375 121.144485Q954.34375 121.78511 954.8594 122.12886Q955.375 122.456985 956.7344 122.769485Q958.09375 123.06636 958.9219 123.488235Q959.7656 123.894485 960.1719 124.488235Q960.5781 125.081985 960.5781 125.925735Q960.5781 127.34761 959.4375 128.20699Q958.3125 129.06636 956.5 129.06636Q955.2344 129.06636 954.25 128.61324Q953.28125 128.16011 952.71875 127.363235Q952.1719 126.550735 952.1719 125.613235L953.9844 125.613235Q954.03125 126.519485 954.7031 127.050735Q955.3906 127.581985 956.5 127.581985Q957.53125 127.581985 958.1406 127.175735Q958.7656 126.75386 958.7656 126.06636Z" fill-rule="nonzero"/><path fill="#9e9e9e" d="M929.75 155.86324L920.4375 155.86324L920.4375 154.56636L925.3594 149.09761Q926.4531 147.84761 926.8594 147.08199Q927.28125 146.30074 927.28125 145.47261Q927.28125 144.36324 926.6094 143.64449Q925.9375 142.92574 924.8125 142.92574Q923.4531 142.92574 922.7031 143.70699Q921.96875 144.47261 921.96875 145.83199L920.15625 145.83199Q920.15625 143.86324 921.4219 142.66011Q922.6875 141.44136 924.8125 141.44136Q926.7969 141.44136 927.9375 142.48824Q929.09375 143.53511 929.09375 145.25386Q929.09375 147.36324 926.4219 150.25386L922.6094 154.39449L929.75 154.39449L929.75 155.86324ZM931.65625 154.91011Q931.65625 154.44136 931.9375 154.12886Q932.21875 153.81636 932.7656 153.81636Q933.3281 153.81636 933.6094 154.12886Q933.90625 154.44136 933.90625 154.91011Q933.90625 155.36324 933.6094 155.67574Q933.3281 155.97261 932.7656 155.97261Q932.21875 155.97261 931.9375 155.67574Q931.65625 155.36324 931.65625 154.91011ZM945.34375 149.80074Q945.34375 152.97261 944.2656 154.51949Q943.1875 156.06636 940.875 156.06636Q938.59375 156.06636 937.5 154.55074Q936.40625 153.03511 936.375 150.03511L936.375 147.62886Q936.375 144.48824 937.4531 142.97261Q938.5469 141.44136 940.8594 141.44136Q943.15625 141.44136 944.2344 142.92574Q945.3125 144.39449 945.34375 147.45699L945.34375 149.80074ZM943.5469 147.33199Q943.5469 145.03511 942.8906 143.98824Q942.25 142.92574 940.8594 142.92574Q939.46875 142.92574 938.8281 143.97261Q938.2031 145.01949 938.1875 147.19136L938.1875 150.08199Q938.1875 152.37886 938.84375 153.48824Q939.5156 154.58199 940.875 154.58199Q942.21875 154.58199 942.8594 153.55074Q943.5156 152.51949 943.5469 150.28511L943.5469 147.33199ZM947.28125 144.37886Q947.28125 143.09761 948.09375 142.26949Q948.90625 141.44136 950.1875 141.44136Q951.4844 141.44136 952.28125 142.28511Q953.09375 143.11324 953.09375 144.44136L953.09375 145.12886Q953.09375 146.42574 952.28125 147.23824Q951.46875 148.05074 950.2031 148.05074Q948.9375 148.05074 948.1094 147.23824Q947.28125 146.42574 947.28125 145.06636L947.28125 144.37886ZM948.625 145.12886Q948.625 145.89449 949.0469 146.39449Q949.4844 146.87886 950.2031 146.87886Q950.90625 146.87886 951.3281 146.41011Q951.75 145.92574 951.75 145.09761L951.75 144.37886Q951.75 143.61324 951.3281 143.11324Q950.90625 142.61324 950.1875 142.61324Q949.46875 142.61324 949.0469 143.11324Q948.625 143.61324 948.625 144.41011L948.625 145.12886ZM954.2031 152.37886Q954.2031 151.09761 955.0156 150.26949Q955.8281 149.44136 957.1094 149.44136Q958.3906 149.44136 959.2031 150.26949Q960.03125 151.08199 960.03125 152.44136L960.03125 153.14449Q960.03125 154.41011 959.21875 155.23824Q958.40625 156.06636 957.125 156.06636Q955.8594 156.06636 955.03125 155.25386Q954.2031 154.44136 954.2031 153.08199L954.2031 152.37886ZM955.5469 153.14449Q955.5469 153.91011 955.96875 154.41011Q956.40625 154.89449 957.125 154.89449Q957.8281 154.89449 958.25 154.41011Q958.6719 153.92574 958.6719 153.09761L958.6719 152.37886Q958.6719 151.59761 958.25 151.11324Q957.8281 150.62886 957.1094 150.62886Q956.4219 150.62886 955.9844 151.11324Q955.5469 151.59761 955.5469 152.41011L955.5469 153.14449ZM950.6094 154.78511L949.59375 154.14449L956.53125 143.03511L957.5625 143.67574L950.6094 154.78511Z" fill-rule="nonzero"/><path stroke="#757575" stroke-width="1.0" stroke-linecap="butt" d="M961.25 135.36324L769.25 135.36324L691.4897 135.36324" fill-rule="nonzero"/><path fill="#9e9e9e" d="M693.4897 135.36324C693.4897 134.25867 692.59424 133.36324 691.4897 133.36324C690.38513 133.36324 689.4897 134.25867 689.4897 135.36324C689.4897 136.4678 690.38513 137.36324 691.4897 137.36324C692.59424 137.36324 693.4897 136.4678 693.4897 135.36324" fill-rule="nonzero"/><path fill="#dedbe4" d="M920.71875 278.32812L916.15625 278.32812L916.15625 291.0L914.2969 291.0L914.2969 278.32812L909.7344 278.32812L909.7344 276.78125L920.71875 276.78125L920.71875 278.32812ZM927.0 291.20312Q924.8594 291.20312 923.5 289.79688Q922.15625 288.375 922.15625 286.01562L922.15625 285.67188Q922.15625 284.10938 922.75 282.875Q923.3594 281.64062 924.4375 280.9375Q925.5156 280.23438 926.78125 280.23438Q928.84375 280.23438 929.9844 281.59375Q931.125 282.95312 931.125 285.48438L931.125 286.23438L923.96875 286.23438Q924.0 287.79688 924.875 288.76562Q925.75 289.71875 927.09375 289.71875Q928.0625 289.71875 928.71875 289.32812Q929.3906 288.9375 929.8906 288.29688L930.9844 289.15625Q929.65625 291.20312 927.0 291.20312ZM926.78125 281.71875Q925.6875 281.71875 924.9375 282.51562Q924.2031 283.3125 924.03125 284.75L929.3125 284.75L929.3125 284.60938Q929.2344 283.23438 928.5625 282.48438Q927.90625 281.71875 926.78125 281.71875ZM940.1406 291.0Q939.9844 290.6875 939.8906 289.89062Q938.625 291.20312 936.875 291.20312Q935.3125 291.20312 934.3125 290.3125Q933.3125 289.42188 933.3125 288.0625Q933.3125 286.42188 934.5625 285.51562Q935.8281 284.59375 938.09375 284.59375L939.8594 284.59375L939.8594 283.76562Q939.8594 282.8125 939.28125 282.25Q938.71875 281.6875 937.625 281.6875Q936.65625 281.6875 936.0 282.1875Q935.34375 282.67188 935.34375 283.35938L933.53125 283.35938Q933.53125 282.57812 934.09375 281.84375Q934.65625 281.09375 935.6094 280.67188Q936.5781 280.23438 937.7344 280.23438Q939.5625 280.23438 940.59375 281.15625Q941.625 282.0625 941.6719 283.67188L941.6719 288.53125Q941.6719 289.98438 942.03125 290.84375L942.03125 291.0L940.1406 291.0ZM937.1406 289.625Q938.0 289.625 938.75 289.1875Q939.5156 288.75 939.8594 288.04688L939.8594 285.875L938.4375 285.875Q935.125 285.875 935.125 287.8125Q935.125 288.67188 935.6875 289.15625Q936.25 289.625 937.1406 289.625ZM946.3125 280.4375L946.3594 281.60938Q947.53125 280.23438 949.5 280.23438Q951.71875 280.23438 952.5156 281.9375Q953.0469 281.17188 953.8906 280.70312Q954.7344 280.23438 955.8906 280.23438Q959.3594 280.23438 959.4219 283.92188L959.4219 291.0L957.6094 291.0L957.6094 284.03125Q957.6094 282.89062 957.09375 282.32812Q956.5781 281.76562 955.3594 281.76562Q954.3594 281.76562 953.6875 282.375Q953.03125 282.96875 952.9219 283.98438L952.9219 291.0L951.1094 291.0L951.1094 284.07812Q951.1094 281.76562 948.84375 281.76562Q947.0625 281.76562 946.4219 283.28125L946.4219 291.0L944.6094 291.0L944.6094 280.4375L946.3125 280.4375Z" fill-rule="nonzero"/><path fill="#9e9e9e" d="M918.75 318.0L909.4375 318.0L909.4375 316.70312L914.3594 311.23438Q915.4531 309.98438 915.8594 309.21875Q916.28125 308.4375 916.28125 307.60938Q916.28125 306.5 915.6094 305.78125Q914.9375 305.0625 913.8125 305.0625Q912.4531 305.0625 911.7031 305.84375Q910.96875 306.60938 910.96875 307.96875L909.15625 307.96875Q909.15625 306.0 910.4219 304.79688Q911.6875 303.57812 913.8125 303.57812Q915.7969 303.57812 916.9375 304.625Q918.09375 305.67188 918.09375 307.39062Q918.09375 309.5 915.4219 312.39062L911.6094 316.53125L918.75 316.53125L918.75 318.0ZM929.34375 311.9375Q929.34375 315.10938 928.2656 316.65625Q927.1875 318.20312 924.875 318.20312Q922.59375 318.20312 921.5 316.6875Q920.40625 315.17188 920.375 312.17188L920.375 309.76562Q920.375 306.625 921.4531 305.10938Q922.5469 303.57812 924.8594 303.57812Q927.15625 303.57812 928.2344 305.0625Q929.3125 306.53125 929.34375 309.59375L929.34375 311.9375ZM927.5469 309.46875Q927.5469 307.17188 926.8906 306.125Q926.25 305.0625 924.8594 305.0625Q923.46875 305.0625 922.8281 306.10938Q922.2031 307.15625 922.1875 309.32812L922.1875 312.21875Q922.1875 314.51562 922.84375 315.625Q923.5156 316.71875 924.875 316.71875Q926.21875 316.71875 926.8594 315.6875Q927.5156 314.65625 927.5469 312.42188L927.5469 309.46875ZM931.65625 317.04688Q931.65625 316.57812 931.9375 316.26562Q932.21875 315.95312 932.7656 315.95312Q933.3281 315.95312 933.6094 316.26562Q933.90625 316.57812 933.90625 317.04688Q933.90625 317.5 933.6094 317.8125Q933.3281 318.10938 932.7656 318.10938Q932.21875 318.10938 931.9375 317.8125Q931.65625 317.5 931.65625 317.04688ZM945.34375 311.9375Q945.34375 315.10938 944.2656 316.65625Q943.1875 318.20312 940.875 318.20312Q938.59375 318.20312 937.5 316.6875Q936.40625 315.17188 936.375 312.17188L936.375 309.76562Q936.375 306.625 937.4531 305.10938Q938.5469 303.57812 940.8594 303.57812Q943.15625 303.57812 944.2344 305.0625Q945.3125 306.53125 945.34375 309.59375L945.34375 311.9375ZM943.5469 309.46875Q943.5469 307.17188 942.8906 306.125Q942.25 305.0625 940.8594 305.0625Q939.46875 305.0625 938.8281 306.10938Q938.2031 307.15625 938.1875 309.32812L938.1875 312.21875Q938.1875 314.51562 938.84375 315.625Q939.5156 316.71875 940.875 316.71875Q942.21875 316.71875 942.8594 315.6875Q943.5156 314.65625 943.5469 312.42188L943.5469 309.46875ZM947.28125 306.51562Q947.28125 305.23438 948.09375 304.40625Q948.90625 303.57812 950.1875 303.57812Q951.4844 303.57812 952.28125 304.42188Q953.09375 305.25 953.09375 306.57812L953.09375 307.26562Q953.09375 308.5625 952.28125 309.375Q951.46875 310.1875 950.2031 310.1875Q948.9375 310.1875 948.1094 309.375Q947.28125 308.5625 947.28125 307.20312L947.28125 306.51562ZM948.625 307.26562Q948.625 308.03125 949.0469 308.53125Q949.4844 309.01562 950.2031 309.01562Q950.90625 309.01562 951.3281 308.54688Q951.75 308.0625 951.75 307.23438L951.75 306.51562Q951.75 305.75 951.3281 305.25Q950.90625 304.75 950.1875 304.75Q949.46875 304.75 949.0469 305.25Q948.625 305.75 948.625 306.54688L948.625 307.26562ZM954.2031 314.51562Q954.2031 313.23438 955.0156 312.40625Q955.8281 311.57812 957.1094 311.57812Q958.3906 311.57812 959.2031 312.40625Q960.03125 313.21875 960.03125 314.57812L960.03125 315.28125Q960.03125 316.54688 959.21875 317.375Q958.40625 318.20312 957.125 318.20312Q955.8594 318.20312 955.03125 317.39062Q954.2031 316.57812 954.2031 315.21875L954.2031 314.51562ZM955.5469 315.28125Q955.5469 316.04688 955.96875 316.54688Q956.40625 317.03125 957.125 317.03125Q957.8281 317.03125 958.25 316.54688Q958.6719 316.0625 958.6719 315.23438L958.6719 314.51562Q958.6719 313.73438 958.25 313.25Q957.8281 312.76562 957.1094 312.76562Q956.4219 312.76562 955.9844 313.25Q955.5469 313.73438 955.5469 314.54688L955.5469 315.28125ZM950.6094 316.92188L949.59375 316.28125L956.53125 305.17188L957.5625 305.8125L950.6094 316.92188Z" fill-rule="nonzero"/><path stroke="#757575" stroke-width="1.0" stroke-linecap="butt" d="M961.25 297.5L769.25 297.5L749.8625 297.5" fill-rule="nonzero"/><path fill="#9e9e9e" d="M751.8625 297.5C751.8625 296.39542 750.96704 295.5 749.8625 295.5C748.75793 295.5 747.8625 296.39542 747.8625 297.5C747.8625 298.60458 748.75793 299.5 749.8625 299.5C750.96704 299.5 751.8625 298.60458 751.8625 297.5" fill-rule="nonzero"/><path fill="#dedbe4" d="M875.3281 503.41992L879.96875 515.0137L884.625 503.41992L887.0469 503.41992L887.0469 517.6387L885.1719 517.6387L885.1719 512.1074L885.3594 506.12305L880.6875 517.6387L879.25 517.6387L874.59375 506.1543L874.78125 512.1074L874.78125 517.6387L872.90625 517.6387L872.90625 503.41992L875.3281 503.41992ZM896.1406 517.6387Q895.9844 517.3262 895.8906 516.5293Q894.625 517.8418 892.875 517.8418Q891.3125 517.8418 890.3125 516.9512Q889.3125 516.06055 889.3125 514.7012Q889.3125 513.06055 890.5625 512.1543Q891.8281 511.23242 894.09375 511.23242L895.8594 511.23242L895.8594 510.4043Q895.8594 509.45117 895.28125 508.88867Q894.71875 508.32617 893.625 508.32617Q892.65625 508.32617 892.0 508.82617Q891.34375 509.31055 891.34375 509.99805L889.53125 509.99805Q889.53125 509.2168 890.09375 508.48242Q890.65625 507.73242 891.6094 507.31055Q892.5781 506.87305 893.7344 506.87305Q895.5625 506.87305 896.59375 507.79492Q897.625 508.70117 897.6719 510.31055L897.6719 515.1699Q897.6719 516.62305 898.03125 517.4824L898.03125 517.6387L896.1406 517.6387ZM893.1406 516.2637Q894.0 516.2637 894.75 515.8262Q895.5156 515.3887 895.8594 514.68555L895.8594 512.5137L894.4375 512.5137Q891.125 512.5137 891.125 514.4512Q891.125 515.31055 891.6875 515.7949Q892.25 516.2637 893.1406 516.2637ZM905.71875 508.68555Q905.3125 508.62305 904.84375 508.62305Q903.0625 508.62305 902.4219 510.13867L902.4219 517.6387L900.625 517.6387L900.625 507.07617L902.375 507.07617L902.40625 508.29492Q903.2969 506.87305 904.9219 506.87305Q905.4531 506.87305 905.71875 507.01367L905.71875 508.68555ZM910.5625 512.74805L909.4375 513.9199L909.4375 517.6387L907.625 517.6387L907.625 502.63867L909.4375 502.63867L909.4375 511.7168L910.40625 510.54492L913.6875 507.07617L915.8906 507.07617L911.78125 511.48242L916.375 517.6387L914.25 517.6387L910.5625 512.74805ZM922.0 517.8418Q919.8594 517.8418 918.5 516.43555Q917.15625 515.0137 917.15625 512.6543L917.15625 512.31055Q917.15625 510.74805 917.75 509.51367Q918.3594 508.2793 919.4375 507.57617Q920.5156 506.87305 921.78125 506.87305Q923.84375 506.87305 924.9844 508.23242Q926.125 509.5918 926.125 512.12305L926.125 512.87305L918.96875 512.87305Q919.0 514.43555 919.875 515.4043Q920.75 516.3574 922.09375 516.3574Q923.0625 516.3574 923.71875 515.9668Q924.3906 515.5762 924.8906 514.93555L925.9844 515.7949Q924.65625 517.8418 922.0 517.8418ZM921.78125 508.35742Q920.6875 508.35742 919.9375 509.1543Q919.2031 509.95117 919.03125 511.38867L924.3125 511.38867L924.3125 511.24805Q924.2344 509.87305 923.5625 509.12305Q922.90625 508.35742 921.78125 508.35742ZM931.0625 504.51367L931.0625 507.07617L933.0469 507.07617L933.0469 508.4668L931.0625 508.4668L931.0625 515.0137Q931.0625 515.6543 931.3281 515.9824Q931.59375 516.2949 932.2344 516.2949Q932.5469 516.2949 933.09375 516.1699L933.09375 517.6387Q932.375 517.8418 931.7031 517.8418Q930.5 517.8418 929.875 517.1074Q929.2656 516.37305 929.2656 515.0137L929.2656 508.4668L927.34375 508.4668L927.34375 507.07617L929.2656 507.07617L929.2656 504.51367L931.0625 504.51367ZM937.5781 517.6387L935.78125 517.6387L935.78125 507.07617L937.5781 507.07617L937.5781 517.6387ZM935.625 504.26367Q935.625 503.82617 935.8906 503.5293Q936.1719 503.2168 936.6875 503.2168Q937.21875 503.2168 937.4844 503.5293Q937.7656 503.82617 937.7656 504.26367Q937.7656 504.70117 937.4844 504.99805Q937.21875 505.29492 936.6875 505.29492Q936.1719 505.29492 935.8906 504.99805Q935.625 504.70117 935.625 504.26367ZM942.3281 507.07617L942.3906 508.4043Q943.59375 506.87305 945.5469 506.87305Q948.90625 506.87305 948.9219 510.6543L948.9219 517.6387L947.125 517.6387L947.125 510.63867Q947.1094 509.49805 946.59375 508.95117Q946.09375 508.4043 945.0 508.4043Q944.125 508.4043 943.4531 508.87305Q942.7969 509.3418 942.4219 510.10742L942.4219 517.6387L940.625 517.6387L940.625 507.07617L942.3281 507.07617ZM951.1875 512.2637Q951.1875 509.79492 952.3281 508.3418Q953.46875 506.87305 955.3594 506.87305Q957.2969 506.87305 958.375 508.24805L958.46875 507.07617L960.1094 507.07617L960.1094 517.3887Q960.1094 519.43555 958.8906 520.6074Q957.6875 521.7949 955.625 521.7949Q954.4844 521.7949 953.3906 521.31055Q952.2969 520.8262 951.71875 519.9668L952.65625 518.8887Q953.8281 520.3262 955.5 520.3262Q956.8281 520.3262 957.5625 519.5762Q958.2969 518.8418 958.2969 517.49805L958.2969 516.5762Q957.21875 517.8418 955.34375 517.8418Q953.4844 517.8418 952.3281 516.3418Q951.1875 514.8418 951.1875 512.2637ZM953.0 512.4668Q953.0 514.2637 953.7344 515.2793Q954.46875 516.2949 955.78125 516.2949Q957.5 516.2949 958.2969 514.74805L958.2969 509.91992Q957.46875 508.4043 955.8125 508.4043Q954.4844 508.4043 953.7344 509.43555Q953.0 510.4668 953.0 512.4668Z" fill-rule="nonzero"/><path fill="#9e9e9e" d="M915.375 544.6387L913.5469 544.6387L913.5469 532.5918L909.90625 533.93555L909.90625 532.2949L915.09375 530.3574L915.375 530.3574L915.375 544.6387ZM921.2656 537.5137L921.9844 530.4199L929.2656 530.4199L929.2656 532.0918L923.5156 532.0918L923.09375 535.9668Q924.1406 535.3574 925.46875 535.3574Q927.40625 535.3574 928.5469 536.6387Q929.6875 537.9199 929.6875 540.1074Q929.6875 542.31055 928.5 543.5762Q927.3125 544.8418 925.1875 544.8418Q923.2969 544.8418 922.1094 543.7949Q920.9219 542.74805 920.75 540.9043L922.46875 540.9043Q922.625 542.12305 923.3281 542.74805Q924.03125 543.3574 925.1875 543.3574Q926.4531 543.3574 927.1719 542.49805Q927.8906 541.6387 927.8906 540.12305Q927.8906 538.7012 927.1094 537.8418Q926.3281 536.9668 925.0469 536.9668Q923.8594 536.9668 923.1875 537.4824L922.7031 537.87305L921.2656 537.5137ZM931.65625 543.68555Q931.65625 543.2168 931.9375 542.9043Q932.21875 542.5918 932.7656 542.5918Q933.3281 542.5918 933.6094 542.9043Q933.90625 543.2168 933.90625 543.68555Q933.90625 544.1387 933.6094 544.4512Q933.3281 544.74805 932.7656 544.74805Q932.21875 544.74805 931.9375 544.4512Q931.65625 544.1387 931.65625 543.68555ZM945.34375 538.5762Q945.34375 541.74805 944.2656 543.2949Q943.1875 544.8418 940.875 544.8418Q938.59375 544.8418 937.5 543.3262Q936.40625 541.81055 936.375 538.81055L936.375 536.4043Q936.375 533.2637 937.4531 531.74805Q938.5469 530.2168 940.8594 530.2168Q943.15625 530.2168 944.2344 531.7012Q945.3125 533.1699 945.34375 536.2324L945.34375 538.5762ZM943.5469 536.1074Q943.5469 533.81055 942.8906 532.7637Q942.25 531.7012 940.8594 531.7012Q939.46875 531.7012 938.8281 532.74805Q938.2031 533.7949 938.1875 535.9668L938.1875 538.8574Q938.1875 541.1543 938.84375 542.2637Q939.5156 543.3574 940.875 543.3574Q942.21875 543.3574 942.8594 542.3262Q943.5156 541.2949 943.5469 539.06055L943.5469 536.1074ZM947.28125 533.1543Q947.28125 531.87305 948.09375 531.0449Q948.90625 530.2168 950.1875 530.2168Q951.4844 530.2168 952.28125 531.06055Q953.09375 531.8887 953.09375 533.2168L953.09375 533.9043Q953.09375 535.2012 952.28125 536.0137Q951.46875 536.8262 950.2031 536.8262Q948.9375 536.8262 948.1094 536.0137Q947.28125 535.2012 947.28125 533.8418L947.28125 533.1543ZM948.625 533.9043Q948.625 534.6699 949.0469 535.1699Q949.4844 535.6543 950.2031 535.6543Q950.90625 535.6543 951.3281 535.18555Q951.75 534.7012 951.75 533.87305L951.75 533.1543Q951.75 532.3887 951.3281 531.8887Q950.90625 531.3887 950.1875 531.3887Q949.46875 531.3887 949.0469 531.8887Q948.625 532.3887 948.625 533.18555L948.625 533.9043ZM954.2031 541.1543Q954.2031 539.87305 955.0156 539.0449Q955.8281 538.2168 957.1094 538.2168Q958.3906 538.2168 959.2031 539.0449Q960.03125 539.8574 960.03125 541.2168L960.03125 541.9199Q960.03125 543.18555 959.21875 544.0137Q958.40625 544.8418 957.125 544.8418Q955.8594 544.8418 955.03125 544.0293Q954.2031 543.2168 954.2031 541.8574L954.2031 541.1543ZM955.5469 541.9199Q955.5469 542.68555 955.96875 543.18555Q956.40625 543.6699 957.125 543.6699Q957.8281 543.6699 958.25 543.18555Q958.6719 542.7012 958.6719 541.87305L958.6719 541.1543Q958.6719 540.37305 958.25 539.8887Q957.8281 539.4043 957.1094 539.4043Q956.4219 539.4043 955.9844 539.8887Q955.5469 540.37305 955.5469 541.18555L955.5469 541.9199ZM950.6094 543.56055L949.59375 542.9199L956.53125 531.81055L957.5625 532.4512L950.6094 543.56055Z" fill-rule="nonzero"/><path stroke="#757575" stroke-width="1.0" stroke-linecap="butt" d="M961.25 524.1387L769.25 524.1387L610.97815 524.1387" fill-rule="nonzero"/><path fill="#9e9e9e" d="M612.97815 524.1387C612.97815 523.03406 612.0827 522.1387 610.97815 522.1387C609.8736 522.1387 608.97815 523.03406 608.97815 524.1387C608.97815 525.2432 609.8736 526.1387 610.97815 526.1387C612.0827 526.1387 612.97815 525.2432 612.97815 524.1387" fill-rule="nonzero"/></svg>