<svg width="60" height="60" viewBox="0 0 60 60" fill="none" xmlns="http://www.w3.org/2000/svg">
<path d="M8.44379 12.706C7.5 14.0507 7.5 18.0477 7.5 26.0416V29.9784C7.5 44.0736 18.0974 50.9137 24.7464 53.8182C26.55 54.6061 27.4519 55 30 55C32.5481 55 33.45 54.6061 35.2536 53.8182C41.9026 50.9137 52.5 44.0736 52.5 29.9784V26.0416C52.5 18.0477 52.5 14.0507 51.5562 12.706C50.6124 11.3613 46.8542 10.0749 39.3377 7.50198L37.9057 7.01179C33.9875 5.6706 32.0285 5 30 5C27.9715 5 26.0125 5.6706 22.0943 7.01179L20.6623 7.50198C13.1458 10.0749 9.38758 11.3613 8.44379 12.706Z" fill="#E1E4EE"/>
<path fill-rule="evenodd" clip-rule="evenodd" d="M19.3916 22.9106C20.2927 21.0048 21.7575 19.5399 23.4911 18.6264C26.0057 17.3016 29.099 17.1315 31.8725 18.4429C34.6461 19.7542 36.4778 22.2527 37.0496 25.0368C37.4439 26.9563 37.2413 29.018 36.3403 30.9238C35.8966 31.8621 35.3173 32.6927 34.6369 33.4033L37.9458 38.1827C38.5352 39.0341 38.3229 40.2022 37.4715 40.7916C36.6201 41.3811 35.452 41.1687 34.8626 40.3173L31.5523 35.5358C29.1719 36.5529 26.3836 36.585 23.8593 35.3915C19.1791 33.1787 17.1788 27.5908 19.3916 22.9106ZM22.7818 24.5134C23.3239 23.3669 24.1994 22.492 25.2392 21.9441C26.7553 21.1453 28.6074 21.0471 30.2697 21.833C31.9319 22.6189 33.0315 24.1126 33.3763 25.7913C33.6127 26.9425 33.4921 28.1744 32.9501 29.3209C31.6225 32.1288 28.2701 33.3289 25.4622 32.0013C22.6543 30.6738 21.4542 27.3213 22.7818 24.5134Z" fill="#CC60FE"/>
</svg>
