<svg width="995" height="130" viewBox="0 0 995 130" fill="none" xmlns="http://www.w3.org/2000/svg">
<circle cx="158.5" cy="1.5" r="0.5" fill="#D9D9D9"/>
<circle cx="187.5" cy="64.5" r="0.5" fill="#D9D9D9"/>
<circle cx="0.5" cy="5.5" r="0.5" fill="#D9D9D9"/>
<circle cx="293.5" cy="10.5" r="0.5" fill="#D9D9D9"/>
<circle cx="239.75" cy="22.75" r="0.75" fill="#D9D9D9"/>
<circle cx="8.75" cy="75.75" r="0.75" fill="#D9D9D9"/>
<circle cx="556.75" cy="109.75" r="0.75" fill="#D9D9D9"/>
<circle cx="320.75" cy="115.75" r="0.75" fill="#D9D9D9"/>
<circle cx="727.75" cy="7.75" r="0.75" fill="#D9D9D9"/>
<circle cx="776.75" cy="48.75" r="0.75" fill="#D9D9D9"/>
<circle cx="852.75" cy="70.75" r="0.75" fill="#D9D9D9"/>
<circle cx="988.75" cy="31.75" r="0.75" fill="#D9D9D9"/>
<circle cx="307.5" cy="66.5" r="0.5" fill="#D9D9D9"/>
<circle cx="524.5" cy="0.5" r="0.5" fill="#D9D9D9"/>
<circle cx="249.5" cy="92.5" r="0.5" fill="#D9D9D9"/>
<circle cx="16.5" cy="114.5" r="0.5" fill="#D9D9D9"/>
<circle cx="109.5" cy="126.5" r="0.5" fill="#D9D9D9"/>
<circle cx="631.5" cy="6.5" r="0.5" fill="#D9D9D9"/>
<circle cx="358.5" cy="5.5" r="0.5" fill="#D9D9D9"/>
<circle cx="396.5" cy="63.5" r="0.5" fill="#D9D9D9"/>
<circle cx="646.5" cy="109.5" r="0.5" fill="#D9D9D9"/>
<circle cx="587.5" cy="62.5" r="0.5" fill="#D9D9D9"/>
<circle cx="684.5" cy="74.5" r="0.5" fill="#D9D9D9"/>
<circle cx="994.5" cy="110.5" r="0.5" fill="#D9D9D9"/>
<circle cx="893.5" cy="128.5" r="0.5" fill="#D9D9D9"/>
<circle cx="939.5" cy="8.5" r="0.5" fill="#D9D9D9"/>
<circle cx="930.5" cy="47.5" r="0.5" fill="#D9D9D9"/>
<circle cx="756.5" cy="129.5" r="0.5" fill="#D9D9D9"/>
<circle cx="673.5" cy="23.5" r="0.5" fill="#D9D9D9"/>
</svg>
