<?xml version="1.0" encoding="UTF-8"?>
<svg xmlns="http://www.w3.org/2000/svg" version="1.1" viewBox="0 0 154 155">
  <defs>
    <style>
      .cls-1 {
        fill: #776464;
      }

      .cls-2, .cls-3 {
        fill: #fff;
      }

      .cls-3 {
        display: none;
      }

      .cls-4 {
        fill-rule: evenodd;
      }

      .cls-4, .cls-5 {
        fill: #483637;
      }
    </style>
  </defs>
  <!-- Generator: Adobe Illustrator 28.6.0, SVG Export Plug-In . SVG Version: 1.2.0 Build 709)  -->
  <g>
    <g id="Layer_1">
      <g id="Layer_1-2" data-name="Layer_1">
        <path class="cls-3" d="M153.5,75C153.5,33.6,119.9,0,78.5,0S3.5,33.6,3.5,75s33.6,75,75,75,75-33.6,75-75Z"/>
        <path class="cls-1" d="M147.9,97.2c-10,40.2-50.7,64.6-90.9,54.6C16.9,141.8-7.6,101.1,2.4,61,12.4,20.8,53.1-3.6,93.3,6.4c40.2,10,64.6,50.7,54.6,90.8Z"/>
        <path class="cls-5" d="M147.9,97.2c-10,40.2-50.7,64.6-90.9,54.6C16.9,141.8-7.6,101.1,2.4,61,12.4,20.8,53.1-3.6,93.3,6.4c40.2,10,64.6,50.7,54.6,90.8Z"/>
        <circle class="cls-1" cx="78.5" cy="75" r="75"/>
        <path class="cls-4" d="M18.5,75c0-33.1,26.9-60,60-60s60,26.9,60,60-26.9,60-60,60h-1.1c31.5-.6,56.8-26.3,56.8-57.9s-25.9-57.9-57.9-57.9-57.3,25.4-57.9,56.8c.1-.3.1-.6.1-1Z"/>
        <g id="secondary-2">
          <g id="Tri-2">
            <path class="cls-2" d="M77,124.9h0c-3,0-5.8-1.7-7.2-4.4l-32.5-59c-2.8-5.5-2.3-11.7,1.4-16,3.3-3.9,7.6-4.2,8.8-4.2h58.7c5,0,7.8,2.3,9.3,4.2,3.6,4.1,4.2,10.5,1.5,15.9l-32.5,59.1c-1.6,2.7-4.3,4.4-7.4,4.4ZM47.4,44.6c-.6,0-3.9.1-6.4,3-2.8,3.2-3.2,8.2-1,12.4l32.5,59c.9,1.7,2.6,2.7,4.5,2.7,1.9,0,3.7-1,4.6-2.7l32.5-59c2.1-4.2,1.7-9.2-1.1-12.4h0c-1.1-1.4-3.1-3.1-6.8-3.1h-58.7Z"/>
          </g>
          <g id="Bold-2">
            <path class="cls-2" d="M101.2,72.4c-1.7-1.9-4.5-2.8-7.6-2.8s-6.6,1.2-9.2,2.6c-2.1,1.7-4.5,3.1-5.5,5.5v-33.5h-4v78.2h4v-36.3c0-2.6.9-4.5,1.9-6.6,1.2-1.9,2.6-3.8,4.7-4.7,1.9-.9,3.8-1.7,6.4-1.7s4.7.9,6.2,2.1c1.7,1.7,2.1,3.6,2.1,5.7v6.4l4-6.6v-.9c0-3.1-1.1-5.7-3-7.4Z"/>
            <path class="cls-2" d="M80.5,124h-7.2V42.6h7.2v30.6c.5-.4,1.1-.9,1.6-1.3.4-.3.9-.6,1.3-1l.2-.2c3.2-1.7,7-2.8,10-2.8s6.8,1.2,8.7,3.3c2.3,2.1,3.6,5.2,3.5,8.6v1.3l-7.2,11.9v-12.1c0-2-.5-3.4-1.6-4.5-1-.8-2.7-1.7-5.1-1.7s-3.9.7-5.7,1.5c-1.7.7-2.9,2.4-4,4-.9,1.9-1.7,3.6-1.7,5.8v37.9ZM76.5,120.8h.8v-34.7c0-.1,0-.3,0-.4h0s0-39.9,0-39.9h-.8v75ZM91.9,71.5c3.4,0,5.8,1.3,7.2,2.5h.1c2.3,2.4,2.6,5,2.6,6.9v.7l.8-1.3v-.5c0-2.5-.8-4.7-2.5-6.2h-.1c-1.3-1.6-3.6-2.4-6.4-2.4s-2,.1-3,.4c.4,0,.9,0,1.3,0Z"/>
          </g>
        </g>
      </g>
    </g>
  </g>
</svg>