<svg width="24" height="24" viewBox="0 0 24 24" fill="none" xmlns="http://www.w3.org/2000/svg">
<path d="M21.7575 11.9991C21.7575 10.121 21.2155 8.27094 20.1773 6.69774L23.9992 2.87145L21.1346 0L17.311 3.82627C14.0909 1.72217 9.92413 1.72217 6.70409 3.82627L2.87343 0L0 2.87145L3.82185 6.69774C1.71737 9.92304 1.71737 14.0857 3.82185 17.311L0 21.1285L2.87343 24L6.69529 20.1737C9.91533 22.2778 14.0821 22.2778 17.3022 20.1737L21.124 24L23.9975 21.1285L20.1756 17.3023C21.2138 15.7291 21.7663 13.8895 21.7557 12.0009L21.7575 11.9991ZM6.31172 11.9991C6.31172 9.67776 7.71408 7.58244 9.86784 6.717C12.0216 5.85152 14.4903 6.37362 16.1004 8.04498C17.7104 9.71808 18.145 12.2059 17.1878 14.3204L13.4346 10.5625L10.57 13.434L14.3231 17.1919C12.5653 17.9785 10.5207 17.8314 8.90184 16.7785C7.29176 15.7255 6.31347 13.9245 6.31347 11.9991H6.31172Z" fill="#0018FF"/>
</svg>
