<?xml version="1.0" encoding="UTF-8"?>
<svg xmlns="http://www.w3.org/2000/svg" version="1.1" viewBox="0 0 154 155">
  <defs>
    <style>
      .cls-1, .cls-2, .cls-3 {
        fill-rule: evenodd;
      }

      .cls-1, .cls-4 {
        fill: #378aec;
      }

      .cls-2, .cls-5 {
        fill: #57a5ff;
      }

      .cls-6, .cls-3 {
        fill: #fff;
      }
    </style>
  </defs>
  <!-- Generator: Adobe Illustrator 28.6.0, SVG Export Plug-In . SVG Version: 1.2.0 Build 709)  -->
  <g>
    <g id="Layer_1">
      <path class="cls-6" d="M153.5,75C153.5,33.6,119.9,0,78.5,0S3.5,33.6,3.5,75s33.6,75,75,75,75-33.6,75-75Z"/>
      <path class="cls-4" d="M147.9,97.2c-10,40.2-50.7,64.6-90.9,54.6C16.9,141.8-7.6,101.1,2.4,61,12.4,20.8,53.1-3.7,93.3,6.3c40.2,10,64.6,50.7,54.6,90.9Z"/>
      <path class="cls-4" d="M147.9,97.2c-10,40.2-50.7,64.6-90.9,54.6C16.9,141.8-7.6,101.1,2.4,61,12.4,20.8,53.1-3.7,93.3,6.3c40.2,10,64.6,50.7,54.6,90.9Z"/>
      <path class="cls-5" d="M78.5,0C37,0,3.5,33.6,3.5,75s33.6,75,75,75,75-33.6,75-75S119.9,0,78.5,0ZM52.8,41.9h51.2c9.4,0,15.4,10.2,10.7,18.4l-31.6,54.8c-.5.8-1.2,1.5-2,2s-1.7.7-2.7.7-1.9-.2-2.7-.7c-.8-.5-1.5-1.1-2-2l-31.6-54.8c-4.7-8.2,1.2-18.4,10.6-18.4ZM83.1,51.2v47.4l6.9-13.3,16.6-29.7c.3-.4.4-.9.4-1.5,0-.5-.1-1-.4-1.5-.3-.4-.6-.8-1.1-1.1-.4-.3-.9-.4-1.5-.4h-20.9ZM52.8,51.2c-.5,0-1,.1-1.5.4-.4.3-.8.6-1.1,1.1-.3.4-.4.9-.4,1.5,0,.5.1,1,.4,1.5l16.6,29.7,6.9,13.3v-47.4h-20.9Z"/>
      <path class="cls-2" d="M52.8,41.9h51.2c9.4,0,15.4,10.2,10.7,18.4l-31.6,54.8c-.5.8-1.2,1.5-2,2s-1.7.7-2.7.7-1.9-.2-2.7-.7-1.5-1.1-2-2l-31.6-54.8c-4.7-8.2,1.2-18.4,10.6-18.4ZM83.1,98.6v-47.4h20.9c.5,0,1,.1,1.5.4.4.3.8.6,1.1,1.1.3.4.4.9.4,1.5,0,.5-.1,1-.4,1.5l-16.6,29.7-6.9,13.3ZM51.4,51.6c.4-.3.9-.4,1.5-.4h20.9v47.4l-6.9-13.3-16.6-29.7c-.3-.4-.4-.9-.4-1.5,0-.5.1-1,.4-1.5.3-.4.6-.8,1.1-1.1Z"/>
      <path class="cls-1" d="M18.5,75c0-33.1,26.9-60,60-60s60,26.9,60,60-26.9,60-60,60-.7,0-1.1,0c31.5-.6,56.8-26.3,56.8-57.9s-25.9-57.9-57.9-57.9-57.3,25.4-57.9,56.8c0-.4,0-.7,0-1.1Z"/>
      <path class="cls-6" d="M58.2,50h40.5c7.4,0,12.2,8,8.4,14.5l-25,43.3c-.4.6-.9,1.2-1.6,1.6-.6.4-1.4.6-2.1.6s-1.5-.2-2.1-.6c-.6-.4-1.2-.9-1.6-1.6l-25-43.3c-3.7-6.5,1-14.5,8.4-14.5ZM82.1,57.4v37.5l5.4-10.5,13.1-23.5c.2-.4.3-.7.3-1.2,0-.4-.1-.8-.3-1.2s-.5-.6-.8-.8c-.4-.2-.8-.3-1.2-.3h-16.6ZM58.2,57.4c-.4,0-.8,0-1.2.3-.4.2-.6.5-.9.8-.2.3-.3.7-.3,1.1,0,.4.1.8.3,1.2l13.1,23.5,5.4,10.5v-37.5h-16.6Z"/>
      <path class="cls-3" d="M58.2,50h40.5c7.4,0,12.2,8,8.4,14.5l-25,43.3c-.4.6-.9,1.2-1.6,1.6-.6.4-1.4.6-2.1.6s-1.5-.2-2.1-.6c-.6-.4-1.2-.9-1.6-1.6l-25-43.3c-3.7-6.5,1-14.5,8.4-14.5ZM82.1,94.9v-37.5h16.6c.4,0,.8,0,1.2.3.4.2.6.5.8.8s.3.7.3,1.2c0,.4-.1.8-.3,1.2l-13.1,23.5-5.4,10.5ZM57,57.7c.4-.2.7-.3,1.2-.3h16.6v37.5l-5.4-10.5-13.1-23.5c-.2-.4-.3-.7-.3-1.2,0-.4.1-.8.3-1.1.2-.3.5-.6.9-.8Z"/>
    </g>
  </g>
</svg>