<?xml version="1.0" encoding="UTF-8" standalone="no"?>
<!DOCTYPE svg PUBLIC "-//W3C//DTD SVG 1.1//EN" "http://www.w3.org/Graphics/SVG/1.1/DTD/svg11.dtd">
<svg width="100%" height="100%" viewBox="0 0 2249 2202" version="1.1" xmlns="http://www.w3.org/2000/svg" xmlns:xlink="http://www.w3.org/1999/xlink" xml:space="preserve" xmlns:serif="http://www.serif.com/" style="fill-rule:evenodd;clip-rule:evenodd;stroke-linecap:round;stroke-linejoin:round;stroke-miterlimit:1.5;">
    <g transform="matrix(1.00102,0,0,0.995171,-2882.38,-138.611)">
        <g id="Слой1">
            <g>
                <g transform="matrix(0.858471,-4.76547e-17,9.46571e-17,0.852595,609.758,76.497)">
                    <circle cx="3949.16" cy="1376.39" r="1212.59" style="fill:white;stroke:black;stroke-width:117.11px;"/>
                </g>
                <g transform="matrix(-33.7461,-40.9567,43.0237,-33.19,4066.03,5863.09)">
                    <g>
                        <path d="M75.027,48.781C74.476,46.939 73.398,45.301 73.615,45.455C73.315,45.955 72.872,45.314 72.944,44.5L73.135,45.404C72.535,46.004 73.475,51.524 72.775,51.924C73.475,52.424 70.863,53.872 71.463,54.472L74.436,57.167C74.836,57.567 75.04,54.506 75.34,54.906C76.884,52.235 75.594,50.676 75.027,48.781Z" style="fill:rgb(162,221,80);fill-rule:nonzero;"/>
                        <g transform="matrix(1.01478,0.0110495,-0.0120892,1.11026,-1.14371,-9.99411)">
                            <path d="M64.2,62C63.3,62 62.5,61.9 61.7,61.7C61.9,62.5 62,63.4 62,64.2L57.648,67.4C57.648,68 57.548,68.5 57.548,69.1C58.116,69.547 58.241,67.238 58.862,67.568C59.624,67.973 49.929,62.824 55.041,62.201C63.904,61.12 61.969,68.237 62.92,67.909C63.597,67.676 64.055,67.095 65.194,67.718C65.589,67.935 66.642,67.151 67.137,67.315C68.973,67.923 68.374,63.716 68.228,65.328C68.118,66.541 67.829,65.865 67.962,65.115C68.05,64.622 68.203,63.936 69.121,64.3C69.742,64.546 69.174,63.424 69.979,63.162C70.335,63.047 69.918,62.795 70.702,62.191C71.405,61.65 71.172,59.612 71.546,61.038C71.665,61.491 71.759,60.649 71.789,60.489C71.841,60.208 71.981,60.225 72.007,59.924C72.067,59.234 70.836,65.646 70.977,65.506C71.928,64.555 69.911,65.807 70.977,65.506C72.343,65.12 72.073,65.525 71.822,65.69C71.539,65.877 71.102,65.841 69.819,65.562C69.125,65.411 67.998,66.254 67.356,65.42C67.222,65.439 65.123,64.498 65.677,64.303C68.025,63.476 67.841,64.277 67.356,64.277L64.2,62Z" style="fill:rgb(68,200,153);fill-rule:nonzero;"/>
                        </g>
                        <path d="M71.882,54.455C71.282,53.855 69.677,57.035 68.977,56.635C65.329,57.772 63.204,58.736 59.07,57.501C58.57,57.801 56.906,55.995 56.406,56.395C56.406,56.795 53.826,54.671 53.926,55.071C58.526,56.071 60.7,57.1 61.7,61.7C62.5,61.9 65.42,65.33 66.22,65.33L68.534,64.378C71.603,64.112 72.625,60.796 73.225,60.796C72.925,60.396 75.064,57.425 74.664,57.125L71.882,54.455Z" style="fill:rgb(0,163,63);fill-rule:nonzero;"/>
                        <path d="M62.187,63.53C62.09,63.101 61.9,62.5 61.7,61.7C57.369,60.447 55.156,56.565 52.611,53.418C52.211,53.318 51.198,52.792 50.798,52.792C50.398,53.292 50.572,53.33 50.272,53.83C50.147,58.759 52.096,60.626 52.817,63.264C53.317,63.964 53.681,63.344 54.281,63.944L55.483,64.535C55.883,64.935 56.868,65.598 58.052,65.99C58.142,65.924 59.174,66.569 59.174,65.969L62.547,66.145L62.277,64.271C62.277,64.271 62.241,63.773 62.187,63.53Z" style="fill:rgb(29,123,151);fill-rule:nonzero;"/>
                        <path d="M61.7,61.7C60.878,57.918 59.703,57.142 56.412,55.944C55.989,55.79 55.262,55.446 54.462,55.085C53.917,54.84 53.486,54.001 53.155,53.929C54.155,58.529 57.1,60.7 61.7,61.7Z" style="fill:rgb(0,104,58);fill-rule:nonzero;"/>
                        <g transform="matrix(-1.20172,-0.314408,0.394252,-1.4126,109.606,170.555)">
                            <path d="M46.544,68.417C46.999,68.489 45.917,67.031 46.555,66.42C46.696,66.285 46.733,65.345 47.124,65.203C48.722,64.626 45.781,64.705 47.117,64.363C48.267,61.096 50.64,59.611 53.524,58.031C53.224,57.531 51.41,58.717 51.01,58.217C50.51,58.217 48.942,59.116 48.442,59.216C45.76,60.655 48.042,59.918 44.464,61.879C44.352,62.326 42.624,61.927 43.079,62.89C43.439,63.649 42.375,63.282 42.375,63.635L41.739,65.244C42.888,65.288 43.052,65.909 42.073,67.031C43.103,65.751 44.204,66.86 44.074,67.441L45.137,66.372L46.808,67.15L46.544,68.417Z" style="fill:rgb(93,83,166);fill-rule:nonzero;"/>
                        </g>
                        <path d="M51.235,59.383C53.735,55.483 54.199,52.829 51.699,48.929C49.199,52.829 48.735,55.383 51.235,59.383Z" style="fill:rgb(36,63,118);fill-rule:nonzero;"/>
                        <g transform="matrix(-1.50671,-0.394202,0.394252,-1.4126,107.206,126.578)">
                            <path d="M31.892,50.8C32.492,50.2 32.8,50.5 33.5,50.1C32.8,49.6 32.1,49.1 31.5,48.5L25.159,42.087C24.759,41.687 26.302,44.057 26.002,43.657C25.453,44.088 25.593,44.376 25.718,44.711C25.949,45.329 26.546,45.533 26.627,45.994C26.903,47.573 27.789,47.703 28.181,48.7C28.601,49.772 28.221,46.837 29.324,49.656C29.385,49.813 29.8,49.165 30.646,50.218L31.892,50.8Z" style="fill:rgb(226,117,168);fill-rule:nonzero;"/>
                        </g>
                        <g transform="matrix(-1.02295,-0.267634,0.356212,-1.2763,112.238,119.635)">
                            <path d="M38.3,38.3C39.3,42.9 43.667,45.895 48.267,46.895C45.861,42.911 41.923,39.728 38.3,38.3Z" style="fill:rgb(230,0,0);fill-rule:nonzero;"/>
                        </g>
                        <g transform="matrix(-1.20172,-0.314408,0.394252,-1.4126,92.3688,129.826)">
                            <path d="M33.974,56.818C35.888,56.602 34.261,56.296 34.696,57.106C35.583,56.596 32.69,59.013 36.494,56.942C36.836,57.683 34.72,56.265 34.943,56.808C33.427,56.483 38.644,57.422 35.988,57.569C35.081,57.649 36.256,56.882 35.988,57.569C35.671,58.378 36.429,57.008 35.336,57.09C33.054,57.261 34.65,56.753 32.684,55.493C31.984,55.993 30.022,54.879 29.993,54.139L29.182,55.504C30.286,56.301 30.517,56.05 30.217,56.45C32.327,56.666 31.278,56.603 31.778,56.603C34.618,57.53 30.714,57.184 33.974,56.818Z" style="fill:rgb(159,49,116);fill-rule:nonzero;"/>
                        </g>
                        <g transform="matrix(-0.854088,0.780943,-0.940319,-1.03983,174.152,85.4741)">
                            <path d="M40.39,61.341C44.99,60.341 47.629,57.76 48.629,53.16C42.692,53.278 39.562,55.786 40.39,61.341Z" style="fill:rgb(86,30,93);fill-rule:nonzero;"/>
                        </g>
                    </g>
                </g>
                <g id="Слой32" transform="matrix(0.546055,0,0,0.540066,1815.78,1050.42)">
                    <g transform="matrix(1.57213,-8.82386e-17,1.73347e-16,1.57869,-2208.61,-1803.34)">
                        <g id="Слой321" serif:id="Слой32">
                            <circle cx="3949.16" cy="1376.39" r="1212.59" style="fill:none;stroke:black;stroke-width:117.11px;"/>
                        </g>
                    </g>
                    <g transform="matrix(0.858471,0,0,0.852595,633.352,76.497)">
                        <circle cx="3949.16" cy="1376.39" r="1212.59" style="fill:none;stroke:black;stroke-width:215.62px;"/>
                    </g>
                    <g transform="matrix(1,0,0,1,-9.09495e-13,227.884)">
                        <g transform="matrix(1.75919,0,0,1.80141,-3035.93,-1882.45)">
                            <path d="M3551.1,1507.08L3780.62,1321.97L4270.8,1327.58L4474.77,1557.57L4000,2027.93L3551.1,1507.08Z" style="fill:none;stroke:black;stroke-width:44.24px;"/>
                        </g>
                        <g id="Слой38" transform="matrix(1.83132,0,0,1.85162,-3325.27,-1944.98)">
                            <path d="M3647.16,1449.78L3811.14,1576.14L3747.89,1376.91L3647.16,1449.78Z" style="stroke:black;stroke-width:42.76px;"/>
                        </g>
                        <g id="Слой39" transform="matrix(1.83132,0,0,1.85162,-3325.27,-1944.98)">
                            <path d="M3811.14,1319.89L3902.68,1527.88L4394.29,1604.43L4456.53,1555.35L4261.07,1319.89L3811.14,1319.89Z" style="stroke:black;stroke-width:42.76px;"/>
                        </g>
                        <g id="Слой40" transform="matrix(1.83132,0,0,1.85162,-3325.27,-1944.98)">
                            <path d="M3856.08,1620.68L4133.84,1866.2L4275.59,1725.5L3856.08,1620.68Z" style="stroke:black;stroke-width:42.76px;"/>
                        </g>
                    </g>
                </g>
                <path d="M4000,2283.85C3335.38,2210.57 3136.69,1511.51 3184.15,1167.15C3231.19,825.758 3510.2,374.624 4012.88,216.152" style="fill:none;stroke:black;stroke-width:100.19px;"/>
                <g transform="matrix(0.499884,0.629147,-0.611147,0.485582,2828.37,-1900.08)">
                    <path d="M4435.44,2491.51C3646.45,2444.38 3189.33,1872.25 3202.79,1269.83C3210.26,935.232 3319.08,343.083 4172.35,23.589" style="fill:none;stroke:black;stroke-width:126.84px;"/>
                </g>
                <g transform="matrix(0.499884,0.629147,-0.611147,0.485582,2828.37,-1900.08)">
                    <path d="M4320.73,2447.38C3533.62,2191.94 3457.78,1452.5 3612.12,1037.41C3790.07,558.797 4409.18,271.518 4984.1,525.144" style="fill:none;stroke:black;stroke-width:126.84px;"/>
                </g>
            </g>
        </g>
    </g>
</svg>
