<svg width="1024" height="1024" viewBox="0 0 1024 1024" fill="none" xmlns="http://www.w3.org/2000/svg">
<rect width="1024" height="1024" fill="url(#paint0_linear_14095_23137)"/>
<path fill-rule="evenodd" clip-rule="evenodd" d="M708.41 474.142C699.084 488.376 688.764 502.033 677.881 513.008C644.804 546.364 560.152 601.876 524.37 624.772C521.528 626.59 517.792 625.397 516.364 622.324C503.765 595.196 486.356 569.777 464.138 547.372C441.473 524.516 415.698 506.707 388.187 493.945C385.115 492.521 383.913 488.735 385.723 485.856C408.21 450.098 463.654 364.03 496.9 330.505C507.776 319.536 521.317 309.145 535.436 299.758C589.076 264.095 655.403 257.367 719.311 264.046C732.36 265.41 742.682 275.819 744.022 288.978C750.578 353.374 743.796 420.131 708.41 474.142ZM659.899 348.719C669.376 358.276 671.278 371.561 665.605 388.576C660.071 405.56 647.797 423.638 628.785 442.81C609.773 461.982 591.804 474.401 574.877 480.067C558.005 485.788 544.83 483.87 535.353 474.313C525.822 464.702 523.866 451.362 529.485 434.293C535.158 417.278 547.5 399.185 566.512 380.013C585.524 360.841 603.451 348.464 620.294 342.883C637.22 337.217 650.422 339.162 659.899 348.719Z" fill="white"/>
<path d="M533.287 655.628C531.261 656.981 530.36 659.513 531.027 661.87C539.649 692.367 542.746 724.119 540.317 755.517C539.851 761.543 548.4 764.816 551.696 759.768L646.563 614.497C652.405 605.551 650.322 593.563 641.811 587.153C640.113 585.875 637.803 585.809 636.038 586.988L533.287 655.628Z" fill="white"/>
<path d="M248.201 459.35C243.126 462.721 246.584 471.597 252.632 471.003C284.508 467.868 316.844 470.589 347.923 479.167C350.246 479.808 352.725 478.897 354.055 476.872L422.906 372.063C424.076 370.283 424.01 367.953 422.743 366.242C416.387 357.659 404.498 355.558 395.627 361.45L248.201 459.35Z" fill="white"/>
<path d="M298.169 706.846C297.13 710.877 300.682 714.459 304.679 713.412C331.683 706.335 413.215 683.743 432.646 664.148C456.03 640.568 455.818 602.124 432.173 578.28C408.528 554.436 370.404 554.222 347.021 577.802C327.589 597.397 305.186 679.615 298.169 706.846Z" fill="white"/>
<defs>
<linearGradient id="paint0_linear_14095_23137" x1="512" y1="0" x2="512" y2="1024" gradientUnits="userSpaceOnUse">
<stop stop-color="#5EBEF0"/>
<stop offset="1" stop-color="#0295FD"/>
</linearGradient>
</defs>
</svg>
