<svg width="40" height="40" viewBox="0 0 40 40" fill="none" xmlns="http://www.w3.org/2000/svg">
<g id="circle3">
<rect id="Rectangle 4493" width="40" height="40" rx="20" fill="#0018FF"/>
<g id="Group 1547764183">
<path id="Vector" d="M27.3576 19.9995C27.3576 18.577 26.9489 17.1758 26.166 15.9842L29.0481 13.0862L26.8879 10.9114L24.0045 13.8094C21.5762 12.2157 18.434 12.2157 16.0058 13.8094L13.1171 10.9114L10.9502 13.0862L13.8323 15.9842C12.2453 18.4271 12.2453 21.5799 13.8323 24.0227L10.9502 26.9141L13.1171 29.0889L15.9991 26.1909C18.4274 27.7846 21.5696 27.7846 23.9978 26.1909L26.8799 29.0889L29.0468 26.9141L26.1647 24.0161C26.9476 22.8245 27.3643 21.4312 27.3563 20.0008L27.3576 19.9995ZM15.7099 19.9995C15.7099 18.2413 16.7674 16.6543 18.3916 15.9988C20.0157 15.3433 21.8774 15.7387 23.0916 17.0046C24.3057 18.2718 24.6334 20.1561 23.9116 21.7577L21.0813 18.9114L18.921 21.0862L21.7514 23.9325C20.4258 24.5283 18.8839 24.4168 17.6631 23.6193C16.449 22.8219 15.7112 21.4578 15.7112 19.9995H15.7099Z" fill="white"/>
</g>
</g>
</svg>
