<?xml version="1.0" encoding="utf-8"?>
<!-- Generator: Adobe Illustrator 24.1.1, SVG Export Plug-In . SVG Version: 6.00 Build 0)  -->
<svg version="1.1" id="bold" xmlns="http://www.w3.org/2000/svg" xmlns:xlink="http://www.w3.org/1999/xlink" x="0px" y="0px"
	 viewBox="0 0 512 512" style="enable-background:new 0 0 512 512;" xml:space="preserve">
<style type="text/css">
	.st0{fill:#FFFFFF;}
</style>
<g>
	<path class="st0" d="M384,490.7H85.3c-35.3,0-64-28.7-64-64V128c0-35.3,28.7-64,64-64H256c11.8,0,21.3,9.5,21.3,21.3
		s-9.6,21.3-21.3,21.3H85.3c-11.8,0-21.3,9.6-21.3,21.3v298.7c0,11.8,9.6,21.3,21.3,21.3H384c11.8,0,21.3-9.6,21.3-21.3V256
		c0-11.8,9.6-21.3,21.3-21.3S448,244.2,448,256v170.7C448,462,419.3,490.7,384,490.7z"/>
</g>
<path class="st0" d="M469.3,21.3h-128c-8.6,0-16.4,5.2-19.7,13.2c-3.3,8-1.5,17.2,4.6,23.3l48.9,48.9L219.6,262.3
	c-8.3,8.3-8.3,21.8,0,30.2c4.2,4.2,9.6,6.3,15.1,6.3s10.9-2.1,15.1-6.3l155.6-155.6l48.9,48.9c4.1,4.1,9.5,6.3,15.1,6.3
	c2.8,0,5.5-0.5,8.2-1.6c8-3.3,13.2-11.1,13.2-19.7v-128C490.7,30.9,481.1,21.3,469.3,21.3L469.3,21.3z"/>
</svg>
